<svg xmlns="http://www.w3.org/2000/svg" viewBox="312 208 156 104" role="img" aria-labelledby="title desc"><title id="title">C3 planned layout</title><desc id="desc">Planned layout generated from plan 5e8e12a9b389d9a686f787e759d466a03fd57712a98bfdebb3a0b1aac3f3e494; background is INFILL_PENDING, not final air.</desc><rect x="0" y="0" width="624" height="416" fill="#202b31"/><g transform="translate(0 416) scale(1 -1)"><polyline points="522,134 523,134 523,135 523,136 523,137 523,138 523,139 523,140 523,141 523,142 522,142 521,142 520,142 519,142 518,142 517,142 516,142 515,142 514,142 513,142 512,142 511,142 510,142 509,142 508,142 507,142 506,142 505,142 504,142 503,142 502,142 501,142 500,142 499,142 498,142 497,142 496,142 495,142 494,142 493,142 492,142 491,142 490,142 489,142 488,142 487,142 486,142 485,142 484,142 483,142 482,142 481,142 480,142 479,142 478,142 477,142 476,142 475,142 474,142 473,142 472,142 471,142 470,142 469,142 468,142 467,142 466,142 465,142 464,142 463,142 462,142 461,142 460,142 459,142 458,142 457,142 456,142 455,142 454,142 453,142 452,142 451,142 450,142 449,142 448,142 447,142 446,142 445,142 444,142 443,142 442,142 441,142 440,142 439,142 438,142 437,142 436,142 435,142 434,142 433,142 432,142 431,142 430,142 429,142 428,142 427,142 426,142 425,142 424,142 423,142 422,142 421,142 420,142 419,142 418,142 417,142 416,142 415,142 415,143 415,144 415,145 415,146 415,147 415,148 415,149 415,150 415,151 415,152 415,153 415,154 415,155 415,156 415,157 415,158 415,159 415,160 415,161 415,162 415,163 415,164 415,165 415,166 415,167 415,168 415,169 415,170 415,171 415,172 415,173 415,174 415,175 415,176 415,177 415,178 415,179 415,180 415,181 415,182 415,183 415,184 415,185 415,186 415,187 415,188 415,189 415,190 415,191 415,192 415,193 415,194 415,195 415,196 415,197 415,198 415,199 415,200 415,201 415,202 415,203 415,204 415,205 415,206 415,207 415,208 415,209 415,210 415,211 415,212 415,213 415,214 415,215 415,216 415,217 415,218 415,219 415,220 415,221 415,222 415,223 415,224 415,225 415,226 415,227 415,228 415,229 415,230 415,231 415,232 415,233 415,234 415,235 415,236 415,237 415,238 415,239 415,240 415,241 415,242 415,243 415,244 415,245 415,246 415,247 415,248 415,249 415,250 415,251 415,252 415,253 415,254 415,255 415,256 415,257 415,258 415,259 415,260 415,261 415,262 415,263 415,264 415,265 415,266 415,267 415,268 415,269 415,270 415,271 415,272 415,273 415,274 415,275 415,276 415,277 415,278 415,279 415,280 415,281 415,282 415,283 415,284 415,285 415,286 415,287 415,288 415,289 415,290 415,291 415,292 415,293 415,294 415,295 415,296 415,297 415,298 415,299 415,300 415,301 415,302 415,303 415,304 415,305 415,306 415,307 415,308 415,309 415,310 415,311 415,312 415,313 415,314 415,315 415,316 415,317 415,318 415,319 415,320 415,321 415,322 415,323 415,324 415,325 415,326 415,327 415,328 415,329 415,330 415,331 415,332 415,333 415,334 415,335 415,336 415,337 415,338 415,339 415,340 415,341 416,341" fill="none" stroke="#4dd0e1" stroke-width="1.3" opacity="0.88"/><polyline points="291,167 292,167 293,167 294,167 295,167 296,167 297,167 298,167 299,167 300,167 301,167 302,167 303,167 304,167 305,167 306,167 307,167 308,167 309,167 310,167 311,167 312,167 313,167 314,167 315,167 316,167 317,167 318,167 319,167 320,167 321,167 322,167 323,167 324,167 325,167 326,167 327,167 328,167 329,167 330,167 331,167 332,167 333,167 334,167 335,167 336,167 337,167 338,167 339,167 340,167 341,167 342,167 343,167 344,167 345,167 346,167 347,167 348,167 349,167 350,167 351,167 352,167 353,167 354,167 355,167 356,167 357,167 358,167 359,167 360,167 361,167 362,167 363,167 364,167 365,167 366,167 367,167 368,167 369,167 370,167 371,167 372,167 373,167 374,167 375,167 376,167 377,167 378,167 379,167 380,167 381,167 382,167 383,167 384,167 385,167 386,167 387,167 388,167 389,167 390,167 391,167 392,167 393,167 394,167 395,167 396,167 397,167 398,167 399,167 400,167 401,167 402,167 403,167 404,167 405,167 406,167 407,167 408,167 409,167 410,167 411,167 412,167 413,167 414,167 415,167 415,168 415,169 415,170 415,171 415,172 415,173 415,174 415,175 415,176 415,177 415,178 415,179 415,180 415,181 415,182 415,183 415,184 415,185 415,186 415,187 415,188 415,189 415,190 415,191 415,192 415,193 415,194 415,195 415,196 415,197 415,198 415,199 415,200 415,201 415,202 415,203 415,204 415,205 415,206 415,207 415,208 415,209 415,210 415,211 415,212 415,213 415,214 415,215 415,216 415,217 415,218 415,219 415,220 415,221 415,222 415,223 415,224 415,225 415,226 415,227 415,228 415,229 415,230 415,231 415,232 415,233 415,234 415,235 415,236 415,237 415,238 415,239 415,240 415,241 415,242 415,243 415,244 415,245 415,246 415,247 415,248 415,249 415,250 415,251 415,252 415,253 415,254 415,255 415,256 415,257 415,258 415,259 415,260 415,261 415,262 415,263 415,264 415,265 415,266 415,267 415,268 415,269 415,270 415,271 415,272 415,273 415,274 415,275 415,276 415,277 415,278 415,279 415,280 415,281 415,282 415,283 415,284 415,285 415,286 415,287 415,288 415,289 415,290 415,291 415,292 415,293 415,294 415,295 415,296 415,297 415,298 415,299 415,300 415,301 415,302 415,303 415,304 415,305 415,306 415,307 415,308 415,309 415,310 415,311 415,312 415,313 415,314 415,315 415,316 415,317 415,318 415,319 415,320 415,321 415,322 415,323 415,324 415,325 415,326 415,327 415,328 415,329 415,330 415,331 415,332 415,333 415,334 415,335 415,336 415,337 415,338 415,339 415,340 415,341 416,341" fill="none" stroke="#4dd0e1" stroke-width="1.3" opacity="0.88"/><polyline points="264,31 265,31 266,31 267,31 268,31 269,31 270,31 271,31 272,31 273,31 274,31 275,31 276,31 277,31 278,31 279,31 280,31 281,31 282,31 283,31 284,31 285,31 286,31 287,31 288,31 289,31 290,31 291,31 292,31 293,31 294,31 295,31 296,31 297,31 298,31 299,31 300,31 301,31 302,31 303,31 304,31 305,31 306,31 307,31 308,31 309,31 310,31 311,31 312,31 313,31 314,31 315,31 316,31 317,31 318,31 319,31 320,31 321,31 322,31 323,31 324,31 325,31 326,31 327,31 328,31 329,31 330,31 331,31 332,31 333,31 334,31 335,31 336,31 337,31 338,31 339,31 340,31 341,31 342,31 343,31 344,31 345,31 346,31 347,31 348,31 349,31 350,31 351,31 352,31 353,31 354,31 355,31 356,31 357,31 358,31 359,31 360,31 361,31 362,31 363,31 364,31 365,31 366,31 367,31 368,31 369,31 370,31 371,31 372,31 373,31 374,31 375,31 376,31 377,31 378,31 379,31 380,31 381,31 382,31 383,31 384,31 385,31 386,31 387,31 388,31 389,31 390,31 391,31 392,31 393,31 394,31 395,31 396,31 397,31 398,31 399,31 400,31 401,31 402,31 403,31 404,31 405,31 406,31 407,31 408,31 409,31 410,31 411,31 412,31 413,31 414,31 415,31 415,32 415,33 415,34 415,35 415,36 415,37 415,38 415,39 415,40 415,41 415,42 415,43 415,44 415,45 415,46 415,47 415,48 415,49 415,50 415,51 415,52 415,53 415,54 415,55 415,56 415,57 415,58 415,59 415,60 415,61 415,62 415,63 415,64 415,65 415,66 415,67 415,68 415,69 415,70 415,71 415,72 415,73 415,74 415,75 415,76 415,77 415,78 415,79 415,80 415,81 415,82 415,83 415,84 415,85 415,86 415,87 415,88 415,89 415,90 415,91 415,92 415,93 415,94 415,95 415,96 415,97 415,98 415,99 415,100 415,101 415,102 415,103 415,104 415,105 415,106 415,107 415,108 415,109 415,110 415,111 415,112 415,113 415,114 415,115 415,116 415,117 415,118 415,119 415,120 415,121 415,122 415,123 415,124 415,125 415,126 415,127 415,128 415,129 415,130 415,131 415,132 415,133 415,134 415,135 415,136 415,137 415,138 415,139 415,140 415,141 415,142 415,143 415,144 415,145 415,146 415,147 415,148 415,149 415,150 415,151 415,152 415,153 415,154 415,155 415,156 415,157 415,158 415,159 415,160 415,161 415,162 415,163 415,164 415,165 415,166 415,167 415,168 415,169 415,170 415,171 415,172 415,173 415,174 415,175 415,176 415,177 415,178 415,179 415,180 415,181 415,182 415,183 415,184 415,185 415,186 415,187 415,188 415,189 415,190 415,191 415,192 415,193 415,194 415,195 415,196 415,197 415,198 415,199 415,200 415,201 415,202 415,203 415,204 415,205 415,206 415,207 415,208 415,209 415,210 415,211 415,212 415,213 415,214 415,215 415,216 415,217 415,218 415,219 415,220 415,221 415,222 415,223 415,224 415,225 415,226 415,227 415,228 415,229 415,230 415,231 415,232 415,233 415,234 415,235 415,236 415,237 415,238 415,239 415,240 415,241 415,242 415,243 415,244 415,245 415,246 415,247 415,248 415,249 415,250 415,251 415,252 415,253 415,254 415,255 415,256 415,257 415,258 415,259 415,260 415,261 415,262 415,263 415,264 415,265 415,266 415,267 415,268 415,269 415,270 415,271 415,272 415,273 415,274 415,275 415,276 415,277 415,278 415,279 415,280 415,281 415,282 415,283 415,284 415,285 415,286 415,287 415,288 415,289 415,290 415,291 415,292 415,293 415,294 415,295 415,296 415,297 415,298 415,299 415,300 415,301 415,302 415,303 415,304 415,305 415,306 415,307 415,308 415,309 415,310 415,311 415,312 415,313 415,314 415,315 415,316 415,317 415,318 415,319 415,320 415,321 415,322 415,323 415,324 415,325 415,326 415,327 415,328 415,329 415,330 415,331 415,332 415,333 415,334 415,335 415,336 415,337 415,338 415,339 415,340 415,341 416,341" fill="none" stroke="#4dd0e1" stroke-width="1.3" opacity="0.88"/><polyline points="522,134 523,134 524,134 525,134 526,134 527,134 528,134 529,134 530,134 531,134 532,134 532,135 532,136 532,137 532,138 532,139 532,140 532,141 532,142 532,143 532,144 532,145 532,146 532,147 532,148 532,149 532,150 532,151 532,152 532,153 532,154 532,155 532,156 532,157 532,158 532,159 532,160 532,161 532,162 532,163 532,164 532,165 532,166 532,167 532,168 532,169 532,170 532,171 532,172 532,173 532,174 532,175 532,176 532,177 532,178 532,179 532,180 532,181 532,182 532,183 532,184 532,185 532,186 532,187 532,188 532,189 532,190 532,191 532,192 532,193 532,194 532,195 532,196 532,197 532,198 532,199 532,200 532,201 532,202 532,203 532,204 532,205 532,206 532,207 532,208 532,209 532,210 532,211 532,212 532,213 532,214 532,215 532,216 532,217 532,218 532,219 532,220 532,221 532,222 532,223 532,224 532,225 532,226 532,227 532,228 532,229 532,230 532,231 532,232 532,233 532,234 532,235 532,236 532,237 532,238 532,239 532,240 532,241 532,242 532,243 532,244 532,245 532,246 532,247 532,248 532,249 532,250 532,251 532,252 532,253 532,254 532,255 532,256 532,257 532,258 532,259 532,260 532,261 532,262 532,263 532,264 532,265 532,266 532,267 532,268 532,269 532,270 532,271 532,272 532,273 532,274 532,275 532,276 532,277 532,278 532,279 532,280 532,281 532,282 532,283 532,284 532,285 532,286 532,287 532,288 532,289 532,290 532,291 532,292 532,293 532,294 532,295 532,296 532,297 532,298 532,299 532,300 532,301 532,302 532,303 532,304 532,305 532,306 532,307 532,308 532,309 532,310 532,311 532,312 533,312" fill="none" stroke="#4dd0e1" stroke-width="1.3" opacity="0.88"/><polyline points="560,312 561,312 561,311 561,310 561,309 561,308 561,307 561,306 561,305 561,304 561,303 561,302 561,301 560,301 559,301 558,301 557,301 556,301 555,301 554,301 553,301 552,301 551,301 550,301 549,301 548,301 547,301 546,301 545,301 544,301 543,301 542,301 541,301 540,301 539,301 538,301 537,301 536,301 535,301 534,301 533,301 532,301 531,301 530,301 529,301 528,301 527,301 526,301 525,301 524,301 523,301 522,301 521,301 520,301 519,301 518,301 517,301 516,301 515,301 514,301 513,301 512,301 511,301 510,301 509,301 508,301 507,301 506,301 505,301 504,301 503,301 502,301 501,301 500,301 499,301 498,301 497,301 496,301 495,301 494,301 493,301 492,301 491,301 490,301 489,301 488,301 487,301 486,301 485,301 484,301 483,301 482,301 481,301 480,301 479,301 478,301 477,301 476,301 475,301 474,301 473,301 472,301 471,301 470,301 469,301 468,301 467,301 466,301 465,301 464,301 463,301 462,301 461,301 460,301 459,301 458,301 457,301 456,301 455,301 454,301 453,301 452,301 451,301 450,301 449,301 448,301 447,301 446,301 445,301 444,301 443,301 442,301 441,301 440,301 439,301 438,301 437,301 436,301 435,301 434,301 433,301 432,301 431,301 430,301 429,301 428,301 427,301 426,301 425,301 424,301 423,301 422,301 421,301 420,301 419,301 418,301 417,301 416,301 415,301 414,301 413,301 412,301 411,301 410,301 409,301 408,301 407,301 406,301 405,301 404,301 403,301 402,301 401,301 400,301 399,301 398,301 397,301 396,301 395,301 394,301 393,301 392,301 391,301 390,301 389,301 388,301 387,301 386,301 385,301 384,301 383,301 382,301 381,301 380,301 379,301 378,301 377,301 376,301 375,301 374,301 373,301 372,301 371,301 370,301 369,301 368,301 367,301 366,301 366,302 365,302 364,302 363,302 362,302 361,302 360,302 359,302 358,302 357,302 356,302 355,302 354,302 353,302 352,302 351,302 350,302 349,302 349,301 349,300 349,299 349,298 349,297 349,296 350,296" fill="none" stroke="#4dd0e1" stroke-width="1.3" opacity="0.88"/><polyline points="560,312 561,312 561,313 561,314 561,315 561,316 561,317 561,318 561,319 561,320 561,321 560,321 559,321 558,321 557,321 556,321 555,321 554,321 553,321 552,321 551,321 550,321 549,321 548,321 547,321 546,321 545,321 544,321 543,321 542,321 541,321 540,321 539,321 538,321 537,321 536,321 535,321 534,321 533,321 532,321 532,320 532,319 532,318 532,317 532,316 532,315 532,314 532,313 532,312 533,312" fill="none" stroke="#4dd0e1" stroke-width="1.3" opacity="0.88"/><polyline points="416,341 415,341 415,340 415,339 415,338 415,337 415,336 415,335 415,334 415,333 416,333 417,333 418,333 419,333 420,333 421,333 422,333 423,333 424,333 425,333 426,333 427,333 428,333 429,333 430,333 431,333 432,333 433,333 434,333 435,333 436,333 437,333 438,333 439,333 440,333 441,333 442,333 443,333 444,333 445,333 446,333 447,333 448,333 449,333 450,333 451,333 452,333 453,333 454,333 455,333 456,333 457,333 458,333 459,333 460,333 461,333 462,333 463,333 464,333 465,333 466,333 467,333 468,333 469,333 470,333 471,333 472,333 473,333 474,333 475,333 476,333 477,333 478,333 479,333 480,333 481,333 482,333 483,333 484,333 485,333 486,333 487,333 488,333 489,333 490,333 491,333 492,333 493,333 494,333 495,333 496,333 497,333 498,333 499,333 500,333 501,333 502,333 503,333 504,333 505,333 506,333 507,333 508,333 509,333 510,333 511,333 512,333 513,333 514,333 515,333 516,333 517,333 518,333 519,333 520,333 521,333 522,333 523,333 524,333 525,333 526,333 527,333 528,333 529,333 530,333 531,333 532,333 533,333 534,333 535,333 536,333 537,333 538,333 539,333 540,333 541,333 542,333 543,333 544,333 545,333 546,333 547,333 548,333 549,333 550,333 551,333 552,333 553,333 554,333 555,333 556,333 557,333 558,333 559,333 560,333 561,333 562,333 563,333 564,333 565,333 566,333 567,333 568,333 569,333 570,333 571,333 572,333 573,333 574,333 575,333 576,333 577,333 578,333 579,333 580,333 580,334 581,334" fill="none" stroke="#4dd0e1" stroke-width="1.3" opacity="0.88"/><polyline points="416,341 415,341 415,340 415,339 415,338 415,337 415,336 415,335 415,334 415,333 416,333 417,333 418,333 419,333 420,333 421,333 422,333 423,333 424,333 425,333 426,333 427,333 428,333 429,333 430,333 431,333 432,333 433,333 434,333 435,333 436,333 437,333 438,333 439,333 440,333 441,333 442,333 443,333 444,333 445,333 446,333 447,333 448,333 449,333 450,333 451,333 452,333 453,333 454,333 455,333 456,333 457,333 458,333 459,333 460,333 461,333 462,333 463,333 464,333 465,333 466,333 467,333 468,333 469,333 470,333 471,333 472,333 473,333 474,333 475,333 476,333 477,333 478,333 479,333 480,333 481,333 482,333 483,333 484,333 485,333 486,333 487,333 488,333 489,333 490,333 491,333 491,332 491,331 491,330 491,329 491,328 491,327 491,326 491,325 491,324 491,323 491,322 491,321 491,320 491,319 491,318 491,317 491,316 491,315 491,314 491,313 491,312 491,311 491,310 491,309 491,308 491,307 491,306 491,305 491,304 491,303 491,302 491,301 491,300 491,299 491,298 491,297 491,296 491,295 491,294 491,293 491,292 491,291 491,290 491,289 491,288 491,287 491,286 491,285 491,284 491,283 491,282 491,281 491,280 491,279 491,278 491,277 491,276 491,275 491,274 491,273 491,272 491,271 491,270 491,269 491,268 492,268 493,268 494,268 495,268 496,268 497,268 498,268 499,268 500,268 501,268 502,268 502,267 502,266 502,265 502,264 502,263 502,262 502,261 502,260 502,259 502,258 502,257 502,256 502,255 502,254 502,253 502,252 502,251 502,250 502,249 502,248 502,247 502,246 502,245 502,244 502,243 502,242 502,241 502,240 502,239 502,238 502,237 502,236 502,235 502,234 502,233 502,232 502,231 502,230 502,229 502,228 502,227 502,226 502,225 502,224 502,223 502,222 502,221 502,220 502,219 502,218 502,217 502,216 502,215 502,214 502,213 502,212 502,211 502,210 502,209 502,208 502,207 502,206 502,205 502,204 502,203 502,202 502,201 502,200 502,199 502,198 502,197 502,196 502,195 502,194 502,193 502,192 502,191 502,190 502,189 502,188 502,187 502,186 502,185 502,184 502,183 502,182 502,181 502,180 502,179 502,178 502,177 502,176 502,175 502,174 502,173 502,172 502,171 502,170 502,169 502,168 502,167 502,166 502,165 502,164 502,163 502,162 502,161 502,160 502,159 502,158 502,157 502,156 502,155 502,154 502,153 502,152 502,151 502,150 502,149 502,148 502,147 502,146 502,145 502,144 502,143 502,142 502,141 502,140 502,139 502,138 502,137 502,136 502,135 502,134 503,134" fill="none" stroke="#4dd0e1" stroke-width="1.3" opacity="0.88"/><polyline points="416,341 415,341 414,341 413,341 412,341 411,341 410,341 409,341 408,341 407,341 406,341 405,341 404,341 403,341 402,341 401,341 400,341 399,341 398,341 397,341 396,341 395,341 394,341 393,341 392,341 391,341 390,341 389,341 388,341 387,341 386,341 385,341 384,341 383,341 382,341 381,341 380,341 379,341 378,341 377,341 376,341 375,341 374,341 373,341 372,341 371,341 370,341 369,341 368,341 367,341 366,341 365,341 364,341 363,341 362,341 361,341 360,341 359,341 358,341 357,341 356,341 355,341 354,341 353,341 352,341 351,341 350,341 349,341 348,341 347,341 346,341 345,341 344,341 343,341 342,341 341,341 340,341 339,341 338,341 337,341 336,341 335,341 334,341 333,341 332,341 331,341 330,341 329,341 328,341 327,341 326,341 325,341 324,341 323,341 322,341 321,341 320,341 319,341 318,341 317,341 316,341 315,341 314,341 313,341 312,341 311,341 310,341 309,341 308,341 307,341 306,341 305,341 304,341 303,341 302,341 301,341 300,341 299,341 298,341 297,341 296,341 295,341 294,341 293,341 292,341 291,341 290,341 289,341 288,341 287,341 286,341 285,341 284,341 283,341 282,341 281,341 280,341 279,341 278,341 277,341 276,341 275,341 274,341 273,341 272,341 271,341 271,340 271,339 271,338 271,337 271,336 271,335 271,334 271,333 271,332 271,331 271,330 271,329 271,328 271,327 271,326 271,325 271,324 271,323 271,322 271,321 271,320 271,319 271,318 271,317 271,316 271,315 271,314 271,313 271,312 271,311 271,310 271,309 271,308 271,307 271,306 271,305 271,304 271,303 271,302 271,301 271,300 271,299 271,298 271,297 271,296 271,295 271,294 271,293 271,292 271,291 271,290 271,289 271,288 271,287 271,286 271,285 271,284 271,283 271,282 271,281 271,280 271,279 271,278 271,277 271,276 271,275 271,274 271,273 271,272 271,271 271,270 271,269 271,268 271,267 271,266 271,265 271,264 271,263 271,262 271,261 271,260 271,259 271,258 271,257 271,256 271,255 271,254 271,253 271,252 271,251 271,250 271,249 271,248 271,247 271,246 271,245 271,244 271,243 271,242 271,241 271,240 271,239 271,238 271,237 271,236 271,235 271,234 271,233 271,232 271,231 271,230 271,229 271,228 271,227 271,226 271,225 271,224 271,223 271,222 271,221 271,220 271,219 271,218 271,217 271,216 271,215 271,214 271,213 271,212 271,211 271,210 271,209 271,208 271,207 271,206 271,205 271,204 271,203 271,202 271,201 271,200 271,199 271,198 271,197 271,196 271,195 271,194 271,193 271,192 271,191 271,190 271,189 271,188 271,187 271,186 271,185 271,184 271,183 271,182 271,181 271,180 271,179 271,178 271,177 271,176 271,175 271,174 271,173 271,172 271,171 271,170 271,169 271,168 271,167 272,167" fill="none" stroke="#4dd0e1" stroke-width="1.3" opacity="0.88"/><polyline points="600,334 601,334 601,335 601,336 601,337 601,338 601,339 601,340 601,341 600,341 599,341 598,341 597,341 596,341 595,341 594,341 593,341 592,341 591,341 590,341 589,341 588,341 587,341 586,341 585,341 584,341 583,341 582,341 581,341 580,341 579,341 578,341 577,341 576,341 575,341 574,341 573,341 572,341 571,341 570,341 569,341 568,341 567,341 566,341 565,341 564,341 563,341 562,341 561,341 560,341 559,341 558,341 557,341 556,341 555,341 554,341 553,341 552,341 551,341 550,341 549,341 548,341 547,341 546,341 545,341 544,341 543,341 542,341 541,341 540,341 539,341 538,341 537,341 536,341 535,341 534,341 533,341 532,341 531,341 530,341 529,341 528,341 527,341 526,341 525,341 524,341 523,341 522,341 521,341 520,341 519,341 518,341 517,341 516,341 515,341 514,341 513,341 512,341 511,341 510,341 509,341 508,341 507,341 506,341 505,341 504,341 503,341 502,341 501,341 500,341 499,341 498,341 497,341 496,341 495,341 494,341 493,341 492,341 491,341 490,341 489,341 488,341 487,341 486,341 485,341 484,341 483,341 482,341 481,341 480,341 479,341 478,341 477,341 476,341 475,341 474,341 473,341 472,341 471,341 470,341 469,341 468,341 467,341 466,341 465,341 464,341 463,341 462,341 461,341 460,341 459,341 458,341 457,341 456,341 455,341 454,341 453,341 452,341 451,341 450,341 449,341 448,341 447,341 446,341 445,341 444,341 443,341 442,341 441,341 440,341 439,341 438,341 437,341 436,341 435,341 434,341 433,341 432,341 432,342 432,343 432,344 432,345 432,346 432,347 431,347 430,347 429,347 428,347 427,347 426,347 425,347 424,347 423,347 422,347 421,347 420,347 419,347 418,347 417,347 416,347 415,347 415,346 415,345 415,344 415,343 415,342 415,341 416,341" fill="none" stroke="#4dd0e1" stroke-width="1.3" opacity="0.88"/><polyline points="416,341 415,341 414,341 413,341 412,341 411,341 410,341 409,341 408,341 407,341 406,341 405,341 404,341 403,341 402,341 401,341 400,341 399,341 398,341 397,341 396,341 395,341 394,341 393,341 392,341 391,341 390,341 389,341 388,341 387,341 386,341 385,341 384,341 383,341 382,341 381,341 380,341 379,341 378,341 377,341 376,341 375,341 374,341 373,341 372,341 371,341 370,341 369,341 368,341 367,341 366,341 365,341 364,341 363,341 362,341 361,341 360,341 359,341 358,341 357,341 356,341 355,341 354,341 353,341 352,341 351,341 350,341 349,341 348,341 347,341 346,341 345,341 344,341 343,341 342,341 341,341 340,341 339,341 338,341 337,341 336,341 335,341 334,341 333,341 332,341 331,341 330,341 329,341 328,341 327,341 326,341 325,341 324,341 323,341 322,341 321,341 320,341 319,341 318,341 317,341 316,341 315,341 314,341 313,341 312,341 311,341 310,341 309,341 308,341 307,341 306,341 305,341 304,341 303,341 302,341 301,341 300,341 299,341 298,341 297,341 296,341 295,341 294,341 293,341 292,341 291,341 290,341 289,341 288,341 287,341 286,341 285,341 284,341 283,341 282,341 281,341 280,341 279,341 278,341 277,341 276,341 275,341 274,341 273,341 272,341 271,341 270,341 269,341 268,341 267,341 266,341 265,341 264,341 263,341 262,341 261,341 260,341 259,341 258,341 257,341 256,341 255,341 254,341 253,341 252,341 251,341 250,341 249,341 248,341 247,341 246,341 245,341 244,341 244,340 244,339 244,338 244,337 244,336 244,335 244,334 244,333 244,332 244,331 244,330 244,329 244,328 244,327 244,326 244,325 244,324 244,323 244,322 244,321 244,320 244,319 244,318 244,317 244,316 244,315 244,314 244,313 244,312 244,311 244,310 244,309 244,308 244,307 244,306 244,305 244,304 244,303 244,302 244,301 244,300 244,299 244,298 244,297 244,296 244,295 244,294 244,293 244,292 244,291 244,290 244,289 244,288 244,287 244,286 244,285 244,284 244,283 244,282 244,281 244,280 244,279 244,278 244,277 244,276 244,275 244,274 244,273 244,272 244,271 244,270 244,269 244,268 244,267 244,266 244,265 244,264 244,263 244,262 244,261 244,260 244,259 244,258 244,257 244,256 244,255 244,254 244,253 244,252 244,251 244,250 244,249 244,248 244,247 244,246 244,245 244,244 244,243 244,242 244,241 244,240 244,239 244,238 244,237 244,236 244,235 244,234 244,233 244,232 244,231 244,230 244,229 244,228 244,227 244,226 244,225 244,224 244,223 244,222 244,221 244,220 244,219 244,218 244,217 244,216 244,215 244,214 244,213 244,212 244,211 244,210 244,209 244,208 244,207 244,206 244,205 244,204 244,203 244,202 244,201 244,200 244,199 244,198 244,197 244,196 244,195 244,194 244,193 244,192 244,191 244,190 244,189 244,188 244,187 244,186 244,185 244,184 244,183 244,182 244,181 244,180 244,179 244,178 244,177 244,176 244,175 244,174 244,173 244,172 244,171 244,170 244,169 244,168 244,167 244,166 244,165 244,164 244,163 244,162 244,161 244,160 244,159 244,158 244,157 244,156 244,155 244,154 244,153 244,152 244,151 244,150 244,149 244,148 244,147 244,146 244,145 244,144 244,143 244,142 244,141 244,140 244,139 244,138 244,137 244,136 244,135 244,134 244,133 244,132 244,131 244,130 244,129 244,128 244,127 244,126 244,125 244,124 244,123 244,122 244,121 244,120 244,119 244,118 244,117 244,116 244,115 244,114 244,113 244,112 244,111 244,110 244,109 244,108 244,107 244,106 244,105 244,104 244,103 244,102 244,101 244,100 244,99 244,98 244,97 244,96 244,95 244,94 244,93 244,92 244,91 244,90 244,89 244,88 244,87 244,86 244,85 244,84 244,83 244,82 244,81 244,80 244,79 244,78 244,77 244,76 244,75 244,74 244,73 244,72 244,71 244,70 244,69 244,68 244,67 244,66 244,65 244,64 244,63 244,62 244,61 244,60 244,59 244,58 244,57 244,56 244,55 244,54 244,53 244,52 244,51 244,50 244,49 244,48 244,47 244,46 244,45 244,44 244,43 244,42 244,41 244,40 244,39 244,38 244,37 244,36 244,35 244,34 244,33 244,32 244,31 245,31" fill="none" stroke="#4dd0e1" stroke-width="1.3" opacity="0.88"/><polyline points="416,341 415,341 415,342 414,342 413,342 412,342 411,342 410,342 409,342 408,342 407,342 406,342 405,342 404,342 403,342 402,342 401,342 400,342 399,342 398,342 397,342 396,342 395,342 394,342 393,342 392,342 391,342 390,342 389,342 388,342 387,342 386,342 385,342 384,342 384,343 384,344 384,345 384,346 384,347 384,348 384,349 384,350 384,351 384,352 384,353 384,354 384,355 384,356 384,357 384,358 384,359 384,360 384,361 384,362 384,363 384,364 384,365 384,366 384,367 384,368 384,369 384,370 384,371 384,372 384,373 384,374 384,375 384,376 384,377 384,378 384,379 384,380 384,381 384,382 384,383 384,384 384,385 384,386 384,387 384,388 384,389 384,390 384,391 384,392 384,393 384,394 384,395 384,396 385,396 386,396 387,396 388,396" fill="none" stroke="#b39ddb" stroke-width="1.3" opacity="0.88"/><polyline points="423,396 424,396 425,396 426,396 427,396 427,395 427,394 427,393 427,392 427,391 427,390 427,389 427,388 427,387 427,386 427,385 427,384 427,383 427,382 427,381 426,381 426,380 425,380 424,380 423,380 422,380 421,380 420,380 419,380 418,380 417,380 416,380 415,380 414,380 413,380 412,380 411,380 410,380 409,380 408,380 407,380 406,380 405,380 404,380 403,380 402,380 401,380 400,380 399,380 398,380 397,380 396,380 395,380 394,380 393,380 392,380 391,380 390,380 389,380 388,380 387,380 386,380 385,380 384,380 383,380 382,380 381,380 380,380 379,380 378,380 377,380 376,380 375,380 374,380 373,380 372,380 371,380 370,380 369,380 368,380 367,380 366,380 365,380 364,380 363,380 362,380 361,380 361,379 361,378 361,377 361,376 361,375 361,374 361,373 361,372 361,371 361,370 361,369 361,368 361,367 361,366 361,365 361,364 361,363 361,362 361,361 361,360 361,359 361,358 361,357 361,356 361,355 361,354 361,353 361,352 361,351 361,350 361,349 361,348 361,347 361,346 361,345 361,344 361,343 361,342 361,341 361,340 361,339 360,339 360,338 359,338 358,338 357,338 356,338 355,338 354,338 353,338 352,338 351,338 350,338 349,338 348,338 347,338 347,337 347,336 347,335 347,334 347,333 347,332 347,331 347,330 347,329 347,328 347,327 347,326 347,325 347,324 347,323 347,322 347,321 347,320 347,319 347,318 347,317 347,316 347,315 347,314 347,313 347,312 347,311 347,310 347,309 347,308 347,307 347,306 347,305 347,304 347,303 347,302 347,301 347,300 347,299 347,298 347,297 347,296 347,295 347,294 348,294 348,293 348,292 348,291 348,290 348,289 349,289 349,288 350,288 351,288 352,288 353,288 354,288 355,288 356,288 357,288 358,288 359,288 360,288 361,288 362,288 363,288 364,288 365,288 366,288 367,288 368,288 369,288 370,288 371,288 372,288 373,288 374,288 375,288 376,288 377,288 378,288 379,288 380,288 381,288 382,288 383,288 384,288 385,288 386,288 387,288 388,288 389,288 390,288 391,288 392,288 393,288 394,288 395,288 396,288 397,288 398,288 399,288 400,288 401,288 402,288 403,288 404,288 405,288 406,288 407,288 408,288 409,288 410,288 411,288 412,288 413,288 414,288 415,288 416,288 417,288 418,288 419,288 420,288 421,288 422,288 423,288 424,288 425,288 426,288 427,288 428,288 429,288 430,288 431,288 432,288 433,288 434,288 435,288 436,288 436,287 436,286 436,285 436,284 436,283 436,282 436,281 436,280 437,280 438,280 439,280 440,280" fill="none" stroke="#b39ddb" stroke-width="1.3" opacity="0.88"/><polyline points="463,280 464,280 465,280 466,280 467,280 468,280 469,280 470,280 471,280 472,280 473,280 474,280 475,280 476,280 477,280 478,280 479,280 480,280 481,280 482,280 483,280 484,280 485,280 486,280 487,280 488,280 489,280 490,280 490,281 490,282 490,283 490,284 490,285 490,286 491,286 491,287 492,287 493,287 494,287 495,287 496,287 497,287 498,287 499,287 500,287 501,287 502,287 503,287 504,287 505,287 506,287 507,287 508,287 509,287 510,287 511,287 512,287 513,287 514,287 515,287 516,287 517,287 518,287 519,287 520,287 521,287 522,287 523,287 524,287 525,287 526,287 527,287 528,287 529,287 530,287 531,287 532,287 533,287 534,287 535,287 536,287 537,287 538,287 539,287 540,287 541,287 542,287 543,287 544,287 545,287 546,287 547,287 548,287 549,287 550,287 551,287 552,287 553,287 554,287 555,287 556,287 557,287 558,287 559,287 560,287 561,287 562,287 563,287 564,287 565,287 566,287 567,287 568,287 569,287 570,287 571,287 572,287 573,287 574,287 575,287 576,287 577,287 578,287 579,287 580,287 581,287 582,287 583,287 584,287 585,287 586,287 587,287 588,287 589,287 590,287 591,287 592,287 593,287 594,287 595,287 596,287 597,287 598,287 599,287 600,287 601,287 602,287 603,287 603,288 603,289 603,290 603,291 603,292 603,293 603,294 603,295 603,296 603,297 603,298 603,299 603,300 603,301 603,302 603,303 603,304 603,305 603,306 603,307 603,308 603,309 603,310 603,311 603,312 603,313 603,314 603,315 603,316 603,317 603,318 603,319 603,320 603,321 603,322 603,323 603,324 603,325 603,326 603,327 603,328 603,329 603,330 603,331 603,332 603,333 603,334 602,334 602,335 602,336 602,337 602,338 602,339 602,340 602,341 601,341 601,342 600,342 599,342 598,342 597,342 596,342 595,342 594,342 593,342 592,342 591,342 590,342 589,342 588,342 587,342 586,342 585,342 584,342 583,342 582,342 581,342 580,342 579,342 578,342 577,342 576,342 575,342 574,342 573,342 572,342 571,342 570,342 569,342 568,342 567,342 566,342 565,342 564,342 563,342 562,342 561,342 560,342 559,342 558,342 557,342 556,342 555,342 554,342 553,342 552,342 551,342 550,342 549,342 548,342 547,342 546,342 545,342 544,342 543,342 542,342 541,342 540,342 539,342 538,342 537,342 536,342 535,342 534,342 533,342 532,342 531,342 530,342 529,342 528,342 528,343 528,344 528,345 528,346 528,347 528,348 528,349 528,350 528,351 528,352 528,353 528,354 528,355 528,356 528,357 528,358 528,359 528,360 528,361 528,362 528,363 528,364 529,364 530,364 531,364 532,364" fill="none" stroke="#b39ddb" stroke-width="1.3" opacity="0.88"/><polyline points="555,364 556,364 557,364 558,364 559,364 560,364 561,364 562,364 563,364 564,364 565,364 566,364 567,364 568,364 569,364 570,364 571,364 572,364 573,364 574,364 575,364 576,364 577,364 578,364 579,364 580,364 581,364 582,364 583,364 584,364 585,364 586,364 587,364 588,364 589,364 590,364 591,364 592,364 593,364 594,364 595,364 596,364 597,364 598,364 599,364 600,364 601,364 602,364 603,364 603,363 603,362 603,361 603,360 603,359 603,358 603,357 603,356 603,355 603,354 603,353 603,352 603,351 603,350 603,349 603,348 603,347 603,346 603,345 603,344 603,343 603,342 603,341 603,340 603,339 603,338 603,337 603,336 603,335 603,334 603,333 603,332 602,332 602,331 602,330 602,329 602,328 602,327 602,326 601,326 601,325 600,325 599,325 598,325 597,325 596,325 595,325 594,325 593,325 592,325 591,325 590,325 589,325 588,325 587,325 586,325 585,325 584,325 583,325 582,325 581,325 580,325 580,324 580,323 580,322 580,321 580,320 580,319 580,318 580,317 580,316 580,315 580,314 580,313 580,312 580,311 580,310 580,309 580,308 580,307 580,306 580,305 580,304 580,303 580,302 580,301 580,300 580,299 580,298 580,297 580,296 580,295 580,294 580,293 580,292 580,291 580,290 580,289 580,288 580,287 580,286 580,285 580,284 580,283 580,282 580,281 580,280 580,279 580,278 580,277 580,276 580,275 580,274 580,273 580,272 580,271 580,270 580,269 580,268 580,267 580,266 580,265 580,264 580,263 580,262 580,261 580,260 580,259 580,258 580,257 580,256 580,255 580,254 580,253 580,252 580,251 580,250 580,249 580,248 580,247 580,246 580,245 580,244 580,243 580,242 580,241 580,240 580,239 580,238 580,237 580,236 580,235 580,234 580,233 580,232 580,231 580,230 580,229 580,228 580,227 580,226 580,225 580,224 580,223 580,222 580,221 580,220 581,220 582,220 583,220 584,220" fill="none" stroke="#b39ddb" stroke-width="1.3" opacity="0.88"/><polyline points="619,220 620,220 621,220 622,220 623,220 623,219 623,218 623,217 623,216 623,215 623,214 623,213 623,212 623,211 623,210 623,209 622,209 622,208 621,208 620,208 619,208 618,208 617,208 616,208 615,208 614,208 613,208 612,208 611,208 610,208 609,208 608,208 607,208 606,208 605,208 604,208 603,208 602,208 601,208 600,208 599,208 598,208 597,208 596,208 595,208 594,208 593,208 592,208 591,208 590,208 589,208 588,208 587,208 586,208 585,208 584,208 583,208 582,208 581,208 580,208 579,208 578,208 577,208 576,208 575,208 574,208 573,208 572,208 571,208 570,208 569,208 568,208 567,208 566,208 565,208 564,208 563,208 562,208 561,208 560,208 559,208 558,208 557,208 556,208 556,207 556,206 556,205 556,204 556,203 556,202 556,201 556,200 556,199 556,198 556,197 556,196 556,195 556,194 556,193 556,192 556,191 556,190 556,189 556,188 556,187 556,186 556,185 556,184 556,183 556,182 556,181 556,180 556,179 556,178 556,177 556,176 556,175 556,174 556,173 556,172 556,171 556,170 556,169 556,168 556,167 556,166 556,165 556,164 556,163 556,162 556,161 556,160 556,159 556,158 556,157 556,156 556,155 556,154 556,153 556,152 556,151 556,150 556,149 556,148 556,147 556,146 556,145 556,144 556,143 556,142 556,141 556,140 556,139 556,138 556,137 556,136 556,135 556,134 556,133 556,132 556,131 556,130 556,129 556,128 556,127 556,126 556,125 556,124 556,123 556,122 556,121 556,120 556,119 556,118 556,117 556,116 556,115 556,114 556,113 556,112 556,111 556,110 556,109 556,108 556,107 556,106 556,105 556,104 556,103 556,102 556,101 556,100 556,99 556,98 556,97 556,96 556,95 556,94 556,93 556,92 556,91 556,90 556,89 556,88 556,87 556,86 556,85 556,84 556,83 556,82 556,81 556,80 556,79 556,78 556,77 556,76 556,75 556,74 556,73 556,72 556,71 556,70 556,69 556,68 556,67 556,66 556,65 556,64 556,63 556,62 556,61 556,60 556,59 556,58 556,57 556,56 556,55 556,54 556,53 556,52 556,51 556,50 556,49 556,48 556,47 556,46 556,45 556,44 556,43 556,42 556,41 556,40 556,39 556,38 556,37 556,36 556,35 556,34 556,33 556,32 556,31 556,30 556,29 556,28 556,27 556,26 556,25 556,24 556,23 556,22 556,21 556,20 556,19 556,18 556,17 556,16 556,15 556,14 556,13 556,12 556,11 556,10 556,9 556,8 557,8 558,8 559,8 560,8" fill="none" stroke="#b39ddb" stroke-width="1.3" opacity="0.88"/><polyline points="579,8 580,8 581,8 582,8 583,8 583,9 583,10 583,11 583,12 583,13 583,14 582,14 582,15 581,15 580,15 579,15 578,15 577,15 576,15 575,15 574,15 573,15 572,15 571,15 570,15 569,15 568,15 567,15 566,15 565,15 564,15 563,15 562,15 561,15 560,15 559,15 558,15 557,15 556,15 555,15 554,15 553,15 552,15 551,15 550,15 549,15 548,15 547,15 546,15 545,15 544,15 543,15 542,15 541,15 540,15 539,15 538,15 537,15 536,15 535,15 534,15 533,15 532,15 531,15 530,15 529,15 528,15 527,15 526,15 525,15 524,15 523,15 522,15 521,15 520,15 519,15 518,15 517,15 516,15 515,15 514,15 513,15 512,15 511,15 510,15 509,15 508,15 507,15 506,15 505,15 504,15 503,15 502,15 501,15 500,15 499,15 498,15 497,15 496,15 495,15 494,15 493,15 492,15 491,15 490,15 489,15 488,15 487,15 486,15 485,15 484,15 483,15 482,15 481,15 480,15 479,15 478,15 477,15 476,15 475,15 474,15 473,15 472,15 471,15 470,15 469,15 468,15 467,15 466,15 465,15 464,15 463,15 462,15 461,15 460,15 459,15 458,15 457,15 456,15 455,15 454,15 453,15 452,15 451,15 450,15 449,15 448,15 447,15 446,15 445,15 444,15 443,15 442,15 441,15 440,15 439,15 438,15 437,15 436,15 435,15 434,15 433,15 432,15 431,15 430,15 429,15 428,15 427,15 426,15 425,15 424,15 423,15 422,15 421,15 420,15 419,15 418,15 417,15 416,15 415,15 414,15 413,15 412,15 411,15 410,15 409,15 408,15 407,15 406,15 405,15 404,15 403,15 402,15 401,15 400,15 399,15 398,15 397,15 396,15 395,15 394,15 393,15 392,15 391,15 390,15 389,15 388,15 387,15 386,15 385,15 384,15 383,15 382,15 381,15 380,15 379,15 378,15 377,15 376,15 375,15 374,15 373,15 372,15 371,15 370,15 369,15 368,15 367,15 367,14 367,13 366,13 366,12 365,12 364,12 363,12 362,12 361,12 360,12 359,12 358,12 357,12 356,12 355,12 354,12 353,12 352,12 351,12 350,12 349,12 348,12 348,13 348,14 348,15 348,16 348,17 348,18 348,19 348,20 348,21 348,22 349,22 350,22 351,22 352,22" fill="none" stroke="#b39ddb" stroke-width="1.3" opacity="0.88"/><polyline points="363,22 364,22 365,22 366,22 367,22 367,21 367,20 367,19 367,18 367,17 367,16 367,15 367,14 367,13 366,13 366,12 365,12 364,12 363,12 362,12 361,12 360,12 359,12 358,12 357,12 356,12 355,12 354,12 353,12 352,12 351,12 350,12 349,12 348,12 347,12 346,12 345,12 344,12 343,12 342,12 341,12 340,12 339,12 338,12 337,12 336,12 335,12 334,12 333,12 332,12 331,12 330,12 329,12 328,12 327,12 326,12 325,12 324,12 323,12 322,12 321,12 320,12 319,12 318,12 317,12 316,12 315,12 314,12 313,12 312,12 311,12 310,12 309,12 308,12 307,12 306,12 305,12 304,12 303,12 302,12 301,12 300,12 299,12 298,12 297,12 296,12 295,12 294,12 293,12 292,12 291,12 290,12 289,12 288,12 287,12 286,12 285,12 284,12 283,12 282,12 281,12 280,12 279,12 278,12 277,12 276,12 275,12 274,12 273,12 272,12 271,12 270,12 269,12 268,12 267,12 266,12 265,12 264,12 263,12 262,12 261,12 260,12 259,12 258,12 257,12 256,12 255,12 254,12 253,12 252,12 251,12 250,12 249,12 248,12 247,12 246,12 245,12 244,12 243,12 242,12 241,12 240,12 239,12 238,12 237,12 236,12 235,12 234,12 233,12 232,12 231,12 230,12 229,12 228,12 227,12 226,12 225,12 224,12 223,12 222,12 221,12 220,12 220,13 220,14 220,15 220,16 220,17 220,18 220,19 220,20 220,21 220,22 220,23 220,24 220,25 220,26 220,27 220,28 220,29 220,30 220,31 220,32 220,33 220,34 220,35 220,36 220,37 220,38 220,39 220,40 220,41 220,42 220,43 220,44 220,45 220,46 220,47 220,48 220,49 220,50 220,51 220,52 220,53 220,54 220,55 220,56 220,57 220,58 220,59 220,60 220,61 220,62 220,63 220,64 220,65 220,66 220,67 220,68 220,69 220,70 220,71 220,72 220,73 220,74 220,75 220,76 220,77 220,78 220,79 220,80 220,81 220,82 220,83 220,84 220,85 220,86 220,87 220,88 220,89 220,90 220,91 220,92 220,93 220,94 220,95 220,96 220,97 220,98 220,99 220,100 220,101 220,102 220,103 220,104 220,105 220,106 220,107 220,108 220,109 220,110 220,111 220,112 220,113 220,114 221,114 222,114 223,114 224,114" fill="none" stroke="#b39ddb" stroke-width="1.3" opacity="0.88"/><polyline points="239,114 240,114 241,114 242,114 243,114 243,113 243,112 243,111 243,110 243,109 243,108 243,107 243,106 243,105 242,105 242,104 241,104 240,104 239,104 238,104 237,104 236,104 235,104 234,104 233,104 232,104 231,104 230,104 229,104 228,104 227,104 226,104 225,104 224,104 223,104 222,104 221,104 220,104 219,104 218,104 217,104 216,104 215,104 214,104 213,104 212,104 211,104 210,104 209,104 208,104 207,104 206,104 205,104 204,104 203,104 202,104 201,104 200,104 199,104 198,104 197,104 196,104 195,104 194,104 193,104 192,104 191,104 190,104 189,104 188,104 187,104 186,104 185,104 184,104 183,104 182,104 181,104 180,104 179,104 178,104 177,104 176,104 176,103 176,102 176,101 176,100 176,99 176,98 176,97 176,96 176,95 176,94 176,93 176,92 176,91 176,90 176,89 176,88 176,87 176,86 176,85 176,84 176,83 176,82 176,81 176,80 176,79 176,78 176,77 176,76 176,75 176,74 176,73 176,72 177,72 178,72 179,72 180,72" fill="none" stroke="#b39ddb" stroke-width="1.3" opacity="0.88"/><polyline points="195,72 196,72 197,72 198,72 199,72 199,73 199,74 199,75 199,76 199,77 199,78 198,78 198,79 197,79 196,79 195,79 194,79 193,79 192,79 191,79 190,79 189,79 188,79 187,79 186,79 185,79 184,79 183,79 182,79 181,79 180,79 179,79 178,79 177,79 176,79 175,79 174,79 173,79 172,79 171,79 170,79 169,79 168,79 167,79 166,79 165,79 164,79 163,79 162,79 161,79 160,79 159,79 158,79 157,79 156,79 155,79 154,79 153,79 152,79 151,79 151,78 151,77 150,77 150,76 149,76 148,76 147,76 146,76 145,76 144,76 143,76 142,76 141,76 140,76 139,76 138,76 137,76 136,76 135,76 134,76 133,76 132,76 132,77 132,78 132,79 132,80 132,81 132,82 132,83 132,84 133,84 134,84 135,84 136,84" fill="none" stroke="#b39ddb" stroke-width="1.3" opacity="0.88"/><polyline points="147,84 148,84 149,84 150,84 151,84 151,85 151,86 151,87 151,88 151,89 151,90 150,90 150,91 149,91 148,91 147,91 146,91 145,91 144,91 143,91 142,91 141,91 140,91 139,91 138,91 137,91 136,91 135,91 134,91 133,91 132,91 131,91 130,91 129,91 128,91 128,92 128,93 128,94 128,95 128,96 128,97 128,98 128,99 128,100 128,101 128,102 128,103 128,104 128,105 128,106 128,107 128,108 128,109 128,110 128,111 128,112 128,113 128,114 128,115 128,116 128,117 128,118 128,119 128,120 128,121 128,122 128,123 128,124 128,125 128,126 128,127 128,128 128,129 128,130 128,131 128,132 128,133 128,134 128,135 128,136 128,137 128,138 128,139 128,140 128,141 128,142 128,143 128,144 128,145 128,146 128,147 128,148 128,149 128,150 128,151 128,152 128,153 128,154 128,155 128,156 128,157 128,158 128,159 128,160 128,161 128,162 128,163 128,164 128,165 128,166 128,167 128,168 128,169 128,170 128,171 128,172 128,173 128,174 128,175 128,176 128,177 128,178 128,179 128,180 128,181 128,182 128,183 128,184 128,185 128,186 128,187 128,188 128,189 128,190 128,191 128,192 128,193 128,194 128,195 128,196 129,196 130,196 131,196 132,196" fill="none" stroke="#b39ddb" stroke-width="1.3" opacity="0.88"/><polyline points="143,196 144,196 145,196 146,196 147,196 148,196 149,196 150,196 151,196 152,196 153,196 154,196 155,196 156,196 157,196 158,196 159,196 160,196 161,196 162,196 163,196 164,196 165,196 166,196 167,196 168,196 168,197 168,198 168,199 168,200 168,201 168,202 168,203 168,204 168,205 168,206 168,207 168,208 168,209 168,210 168,211 168,212 168,213 168,214 168,215 168,216 168,217 168,218 168,219 168,220 168,221 168,222 168,223 168,224 168,225 168,226 168,227 168,228 168,229 168,230 168,231 168,232 168,233 168,234 168,235 168,236 168,237 168,238 168,239 168,240 168,241 168,242 168,243 168,244 169,244 170,244 171,244 172,244" fill="none" stroke="#b39ddb" stroke-width="1.3" opacity="0.88"/><polyline points="207,244 208,244 209,244 210,244 211,244 211,245 211,246 211,247 211,248 211,249 211,250 211,251 211,252 211,253 211,254 211,255 211,256 211,257 211,258 211,259 211,260 211,261 211,262 210,262 210,263 209,263 208,263 207,263 206,263 205,263 204,263 203,263 202,263 201,263 200,263 199,263 198,263 197,263 196,263 195,263 194,263 193,263 192,263 191,263 190,263 189,263 188,263 187,263 186,263 185,263 184,263 183,263 182,263 181,263 180,263 179,263 178,263 177,263 176,263 175,263 174,263 173,263 172,263 171,263 170,263 169,263 168,263 167,263 166,263 165,263 164,263 163,263 162,263 161,263 160,263 159,263 158,263 157,263 156,263 155,263 154,263 153,263 152,263 151,263 150,263 149,263 148,263 147,263 146,263 145,263 144,263 143,263 142,263 141,263 140,263 139,263 138,263 137,263 136,263 135,263 134,263 133,263 132,263 131,263 130,263 129,263 128,263 127,263 126,263 125,263 124,263 123,263 122,263 121,263 120,263 119,263 118,263 117,263 116,263 115,263 114,263 113,263 112,263 111,263 110,263 109,263 108,263 107,263 106,263 105,263 104,263 103,263 102,263 101,263 100,263 99,263 98,263 97,263 96,263 95,263 94,263 93,263 92,263 91,263 90,263 89,263 88,263 87,263 86,263 85,263 84,263 83,263 82,263 81,263 80,263 79,263 78,263 77,263 76,263 75,263 74,263 73,263 72,263 71,263 70,263 69,263 68,263 67,263 66,263 65,263 64,263 63,263 62,263 61,263 60,263 60,264 60,265 60,266 60,267 60,268 60,269 60,270 60,271 60,272 60,273 60,274 60,275 60,276 60,277 60,278 60,279 60,280 60,281 60,282 60,283 60,284 61,284 62,284 63,284 64,284" fill="none" stroke="#b39ddb" stroke-width="1.3" opacity="0.88"/><polyline points="123,284 124,284 125,284 126,284 127,284 127,285 127,286 127,287 127,288 127,289 127,290 127,291 127,292 127,293 127,294 127,295 127,296 127,297 127,298 126,298 126,299 125,299 124,299 123,299 122,299 121,299 120,299 119,299 118,299 117,299 116,299 115,299 114,299 113,299 112,299 111,299 110,299 109,299 108,299 107,299 106,299 105,299 104,299 103,299 102,299 101,299 100,299 99,299 98,299 97,299 96,299 95,299 94,299 93,299 92,299 91,299 90,299 89,299 88,299 87,299 86,299 85,299 84,299 83,299 82,299 81,299 80,299 79,299 78,299 77,299 76,299 75,299 74,299 73,299 72,299 71,299 70,299 69,299 68,299 67,299 66,299 65,299 64,299 63,299 62,299 61,299 60,299 59,299 58,299 57,299 56,299 55,299 54,299 53,299 52,299 51,299 50,299 49,299 48,299 47,299 46,299 45,299 44,299 43,299 42,299 41,299 40,299 40,300 40,301 40,302 40,303 40,304 40,305 40,306 40,307 40,308 40,309 40,310 40,311 40,312 40,313 40,314 40,315 40,316 40,317 40,318 40,319 40,320 40,321 40,322 40,323 40,324 40,325 40,326 40,327 40,328 40,329 40,330 40,331 40,332 40,333 40,334 40,335 40,336 40,337 40,338 40,339 40,340 40,341 40,342 40,343 40,344 40,345 40,346 40,347 40,348 40,349 40,350 40,351 40,352 40,353 40,354 40,355 40,356 40,357 40,358 40,359 40,360 40,361 40,362 40,363 40,364 40,365 40,366 40,367 40,368 40,369 40,370 40,371 40,372 40,373 40,374 40,375 40,376 40,377 40,378 40,379 40,380 40,381 40,382 40,383 40,384 40,385 40,386 40,387 40,388 40,389 40,390 40,391 40,392 40,393 40,394 40,395 40,396 41,396 42,396 43,396 44,396" fill="none" stroke="#b39ddb" stroke-width="1.3" opacity="0.88"/><polyline points="79,396 80,396 81,396 82,396 83,396 84,396 85,396 86,396 87,396 88,396 89,396 90,396 91,396 92,396 93,396 94,396 95,396 96,396 97,396 98,396 99,396 100,396 101,396 102,396 103,396 104,396 105,396 106,396 107,396 108,396 109,396 110,396 111,396 112,396 113,396 114,396 115,396 116,396 117,396 118,396 119,396 120,396 121,396 122,396 123,396 124,396 125,396 126,396 127,396 128,396 129,396 130,396 131,396 132,396 133,396 134,396 135,396 136,396 137,396 138,396 139,396 140,396 141,396 142,396 143,396 144,396 145,396 146,396 147,396 148,396 149,396 150,396 151,396 152,396 153,396 154,396 155,396 156,396 157,396 158,396 159,396 160,396 161,396 162,396 163,396 164,396 165,396 166,396 167,396 168,396 169,396 170,396 171,396 172,396 173,396 174,396 175,396 176,396 177,396 178,396 179,396 180,396 181,396 182,396 183,396 184,396 185,396 186,396 187,396 188,396 189,396 190,396 191,396 192,396 193,396 194,396 195,396 196,396 197,396 198,396 199,396 200,396 201,396 202,396 203,396 204,396 205,396 206,396 207,396 208,396 209,396 210,396 211,396 212,396 213,396 214,396 215,396 216,396 217,396 218,396 219,396 220,396 221,396 222,396 223,396 224,396 225,396 226,396 227,396 228,396 229,396 230,396 231,396 232,396 233,396 234,396 235,396 236,396 237,396 238,396 239,396 240,396 241,396 242,396 243,396 244,396 244,397 244,398 244,399 244,400 245,400 246,400 247,400 248,400" fill="none" stroke="#b39ddb" stroke-width="1.3" opacity="0.88"/><polyline points="515,278 516,278 517,278 518,278 519,278 520,278 521,278 522,278 523,278 524,278 525,278 526,278 527,278 528,278 529,278 530,278 531,278 532,278 533,278 534,278 535,278 536,278 537,278 538,278 539,278 540,278 541,278 542,278 543,278 544,278 545,278 546,278 547,278 548,278 549,278 550,278 551,278 552,278 553,278 554,278 555,278 556,278 557,278 558,278 559,278 560,278 561,278 562,278 563,278 563,279 563,280 563,281 563,282 563,283 563,284 563,285 563,286 563,287 563,288 563,289 563,290 563,291 563,292 563,293 563,294 563,295 563,296 563,297 563,298 563,299 563,300 563,301 562,301 562,302 562,303 562,304 562,305 562,306 562,307 562,308 562,309 562,310 562,311 561,311 561,312 560,312 559,312 558,312 557,312 556,312 555,312 554,312 553,312 552,312 551,312 550,312 550,313 549,313 549,314 548,314 547,314 546,314 545,314 544,314 543,314 543,315 543,316 542,316 542,317 541,317 540,317 539,317 538,317 537,317 536,317 535,317 535,318 535,319 535,320 535,321 534,321 534,322 533,322 532,322 531,322 530,322 529,322 528,322 527,322 526,322 525,322 524,322 523,322 522,322 521,322 520,322 519,322 518,322 517,322 516,322 515,322 514,322 513,322 512,322 511,322 510,322 509,322 508,322 507,322 506,322 505,322 504,322 503,322 502,322 501,322 500,322 499,322 498,322 497,322 496,322 495,322 494,322 493,322 492,322 491,322 490,322 489,322 488,322 487,322 486,322 485,322 484,322 483,322 482,322 481,322 480,322 479,322 478,322 477,322 476,322 475,322 474,322 473,322 472,322 471,322 470,322 469,322 468,322 467,322 466,322 465,322 464,322 463,322 462,322 461,322 460,322 459,322 458,322 457,322 456,322 455,322 454,322 453,322 452,322 451,322 450,322 449,322 448,322 447,322 446,322 445,322 444,322 443,322 442,322 441,322 440,322 439,322 438,322 437,322 436,322 435,322 434,322 433,322 432,322 431,322 430,322 429,322 428,322 427,322 426,322 425,322 424,322 423,322 422,322 421,322 420,322 419,322 418,322 417,322 416,322 415,322 414,322 413,322 412,322 411,322 410,322 409,322 408,322 407,322 406,322 405,322 404,322 403,322 402,322 401,322 400,322 399,322 398,322 397,322 396,322 395,322 394,322 393,322 392,322 391,322 390,322 389,322 388,322 387,322 386,322 385,322 384,322 383,322 382,322 382,323 382,324 382,325 382,326 382,327 382,328 382,329 382,330 382,331 382,332 382,333 382,334 382,335 382,336 382,337 382,338 382,339 382,340 382,341 383,341 383,342 384,342 385,342 386,342 387,342 388,342 389,342 390,342 391,342 392,342 393,342 394,342 395,342 396,342 397,342 398,342 399,342 400,342 401,342 402,342 403,342 404,342 405,342 406,342 407,342 408,342 409,342 410,342 411,342 412,342 413,342 414,342 415,342 415,341 416,341" fill="none" stroke="#b39ddb" stroke-width="1.3" opacity="0.88"/><polyline points="271,400 272,400 273,400 274,400 275,400 276,400 277,400 278,400 279,400 280,400 281,400 282,400 283,400 284,400 285,400 286,400 287,400 288,400 289,400 290,400 291,400 292,400 293,400 294,400 295,400 296,400 297,400 298,400 299,400 300,400 301,400 302,400 303,400 304,400 305,400 306,400 307,400 308,400 309,400 310,400 311,400 312,400 313,400 314,400 315,400 316,400 317,400 318,400 319,400 320,400 321,400 322,400 323,400 324,400 325,400 326,400 327,400 328,400 329,400 330,400 331,400 332,400 333,400 334,400 335,400 336,400 337,400 338,400 339,400 340,400 341,400 342,400 343,400 344,400 345,400 346,400 347,400 348,400 349,400 350,400 351,400 352,400 353,400 354,400 355,400 356,400 357,400 358,400 359,400 360,400 361,400 361,399 361,398 361,397 361,396 361,395 361,394 361,393 361,392 361,391 361,390 361,389 361,388 361,387 361,386 361,385 361,384 361,383 361,382 361,381 361,380 361,379 361,378 361,377 361,376 361,375 361,374 361,373 361,372 361,371 361,370 361,369 361,368 361,367 361,366 361,365 361,364 361,363 361,362 361,361 361,360 361,359 361,358 361,357 361,356 361,355 361,354 361,353 361,352 361,351 361,350 361,349 361,348 361,347 361,346 361,345 361,344 361,343 361,342 361,341 361,340 361,339 360,339 360,338 359,338 358,338 357,338 356,338 355,338 354,338 353,338 352,338 351,338 350,338 349,338 348,338 347,338 347,337 347,336 347,335 347,334 347,333 347,332 347,331 347,330 347,329 347,328 347,327 347,326 347,325 347,324 347,323 347,322 347,321 347,320 347,319 347,318 347,317 347,316 347,315 347,314 347,313 347,312 347,311 347,310 347,309 347,308 347,307 347,306 347,305 347,304 347,303 347,302 347,301 347,300 347,299 347,298 347,297 347,296 347,295 347,294 348,294 348,293 348,292 348,291 348,290 348,289 349,289 349,288 350,288 351,288 352,288 353,288 354,288 355,288 356,288 357,288 358,288 359,288 360,288 361,288 362,288 363,288 364,288 365,288 366,288 367,288 368,288 369,288 370,288 371,288 372,288 373,288 374,288 375,288 376,288 377,288 378,288 379,288 380,288 381,288 382,288 383,288 384,288 385,288 386,288 387,288 388,288 389,288 390,288 391,288 392,288 393,288 394,288 395,288 396,288 397,288 398,288 399,288 400,288 401,288 402,288 403,288 404,288 405,288 406,288 407,288 408,288 409,288 410,288 411,288 412,288 413,288 414,288 415,288 416,288 417,288 418,288 419,288 420,288 421,288 422,288 423,288 424,288 425,288 426,288 427,288 428,288 429,288 430,288 431,288 432,288 433,288 434,288 435,288 436,288 436,287 436,286 436,285 436,284 436,283 436,282 436,281 436,280 436,279 436,278 436,277 436,276 436,275 436,274 436,273 436,272 436,271 436,270 436,269 436,268 436,267 436,266 436,265 436,264 436,263 436,262 436,261 437,261 437,260 438,260 439,260 440,260 441,260 442,260 443,260 444,260 445,260 446,260 447,260 448,260 449,260 450,260 451,260 452,260 453,260 454,260 455,260 456,260 457,260 458,260 459,260 460,260 461,260 462,260 463,260 464,260 465,260 466,260 467,260 468,260 469,260 470,260 471,260 472,260 473,260 474,260 475,260 476,260 477,260 478,260 479,260 480,260 481,260 482,260 483,260 484,260 485,260 486,260 487,260 488,260 489,260 489,261 489,262 489,263 489,264 489,265 489,266 489,267 489,268 490,268 490,269 490,270 490,271 490,272 490,273 490,274 490,275 490,276 490,277 490,278 491,278 492,278" fill="none" stroke="#b39ddb" stroke-width="1.3" opacity="0.88"/><polyline points="492,278 493,278 494,278 495,278 496,278 497,278 498,278 499,278 500,278 501,278 502,278 502,277 503,277 504,277 505,277 506,277 507,277 508,277 509,277 510,277 511,277 512,277 513,277 514,277 515,277 515,278" fill="none" stroke="#f48fb1" stroke-width="1.3" opacity="0.88"/><rect x="272" y="160" width="20" height="14" fill="#1565c0" fill-opacity="0.58" stroke="#f5f5f5" stroke-width="0.7"/><rect x="581" y="327" width="20" height="14" fill="#1565c0" fill-opacity="0.58" stroke="#f5f5f5" stroke-width="0.7"/><rect x="350" y="290" width="16" height="12" fill="#1565c0" fill-opacity="0.58" stroke="#f5f5f5" stroke-width="0.7"/><rect x="503" y="126" width="20" height="16" fill="#1565c0" fill-opacity="0.58" stroke="#f5f5f5" stroke-width="0.7"/><rect x="245" y="24" width="20" height="14" fill="#1565c0" fill-opacity="0.58" stroke="#f5f5f5" stroke-width="0.7"/><rect x="533" y="303" width="28" height="18" fill="#1565c0" fill-opacity="0.58" stroke="#f5f5f5" stroke-width="0.7"/><rect x="416" y="335" width="16" height="12" fill="#1565c0" fill-opacity="0.58" stroke="#f5f5f5" stroke-width="0.7"/><rect x="492" y="270" width="24" height="16" fill="#1565c0" fill-opacity="0.58" stroke="#f5f5f5" stroke-width="0.7"/><rect x="64" y="272" width="60" height="24" fill="#f9a825" fill-opacity="0.58" stroke="#f5f5f5" stroke-width="0.7"/><rect x="172" y="228" width="36" height="32" fill="#f9a825" fill-opacity="0.58" stroke="#f5f5f5" stroke-width="0.7"/><rect x="440" y="264" width="24" height="32" fill="#f9a825" fill-opacity="0.58" stroke="#f5f5f5" stroke-width="0.7"/><rect x="584" y="212" width="36" height="16" fill="#f9a825" fill-opacity="0.58" stroke="#f5f5f5" stroke-width="0.7"/><rect x="44" y="384" width="36" height="24" fill="#f9a825" fill-opacity="0.58" stroke="#f5f5f5" stroke-width="0.7"/><rect x="248" y="388" width="24" height="24" fill="#f9a825" fill-opacity="0.58" stroke="#f5f5f5" stroke-width="0.7"/><rect x="388" y="384" width="36" height="24" fill="#f9a825" fill-opacity="0.58" stroke="#f5f5f5" stroke-width="0.7"/><rect x="532" y="348" width="24" height="32" fill="#f9a825" fill-opacity="0.58" stroke="#f5f5f5" stroke-width="0.7"/><rect x="136" y="80" width="12" height="8" fill="#43a047" fill-opacity="0.58" stroke="#f5f5f5" stroke-width="0.7"/><rect x="180" y="68" width="16" height="8" fill="#43a047" fill-opacity="0.58" stroke="#f5f5f5" stroke-width="0.7"/><rect x="352" y="16" width="12" height="12" fill="#43a047" fill-opacity="0.58" stroke="#f5f5f5" stroke-width="0.7"/><rect x="560" y="4" width="20" height="8" fill="#43a047" fill-opacity="0.58" stroke="#f5f5f5" stroke-width="0.7"/><rect x="132" y="192" width="12" height="8" fill="#43a047" fill-opacity="0.58" stroke="#f5f5f5" stroke-width="0.7"/><rect x="224" y="108" width="16" height="12" fill="#43a047" fill-opacity="0.58" stroke="#f5f5f5" stroke-width="0.7"/><circle cx="272" cy="167" r="1.8" fill="#fff176"/><circle cx="291" cy="167" r="1.8" fill="#fff176"/><circle cx="581" cy="334" r="1.8" fill="#fff176"/><circle cx="600" cy="334" r="1.8" fill="#fff176"/><circle cx="350" cy="296" r="1.8" fill="#fff176"/><circle cx="503" cy="134" r="1.8" fill="#fff176"/><circle cx="522" cy="134" r="1.8" fill="#fff176"/><circle cx="245" cy="31" r="1.8" fill="#fff176"/><circle cx="264" cy="31" r="1.8" fill="#fff176"/><circle cx="533" cy="312" r="1.8" fill="#fff176"/><circle cx="560" cy="312" r="1.8" fill="#fff176"/><circle cx="416" cy="341" r="1.8" fill="#fff176"/><circle cx="431" cy="341" r="1.8" fill="#fff176"/><circle cx="492" cy="278" r="1.8" fill="#fff176"/><circle cx="515" cy="278" r="1.8" fill="#fff176"/><circle cx="64" cy="284" r="1.8" fill="#fff176"/><circle cx="123" cy="284" r="1.8" fill="#fff176"/><circle cx="172" cy="244" r="1.8" fill="#fff176"/><circle cx="207" cy="244" r="1.8" fill="#fff176"/><circle cx="440" cy="280" r="1.8" fill="#fff176"/><circle cx="463" cy="280" r="1.8" fill="#fff176"/><circle cx="584" cy="220" r="1.8" fill="#fff176"/><circle cx="619" cy="220" r="1.8" fill="#fff176"/><circle cx="44" cy="396" r="1.8" fill="#fff176"/><circle cx="79" cy="396" r="1.8" fill="#fff176"/><circle cx="248" cy="400" r="1.8" fill="#fff176"/><circle cx="271" cy="400" r="1.8" fill="#fff176"/><circle cx="388" cy="396" r="1.8" fill="#fff176"/><circle cx="423" cy="396" r="1.8" fill="#fff176"/><circle cx="532" cy="364" r="1.8" fill="#fff176"/><circle cx="555" cy="364" r="1.8" fill="#fff176"/><circle cx="136" cy="84" r="1.8" fill="#fff176"/><circle cx="147" cy="84" r="1.8" fill="#fff176"/><circle cx="180" cy="72" r="1.8" fill="#fff176"/><circle cx="195" cy="72" r="1.8" fill="#fff176"/><circle cx="352" cy="22" r="1.8" fill="#fff176"/><circle cx="363" cy="22" r="1.8" fill="#fff176"/><circle cx="560" cy="8" r="1.8" fill="#fff176"/><circle cx="579" cy="8" r="1.8" fill="#fff176"/><circle cx="132" cy="196" r="1.8" fill="#fff176"/><circle cx="143" cy="196" r="1.8" fill="#fff176"/><circle cx="224" cy="114" r="1.8" fill="#fff176"/><circle cx="239" cy="114" r="1.8" fill="#fff176"/><rect x="415" y="300" width="1" height="1" fill="#ef5350"/><rect x="414" y="301" width="1" height="1" fill="#ef5350"/><rect x="415" y="301" width="1" height="1" fill="#ef5350"/><rect x="416" y="301" width="1" height="1" fill="#ef5350"/><rect x="414" y="302" width="1" height="1" fill="#ef5350"/><rect x="415" y="302" width="1" height="1" fill="#ef5350"/><rect x="416" y="302" width="1" height="1" fill="#ef5350"/><rect x="415" y="303" width="1" height="1" fill="#ef5350"/><line x1="414.5" y1="301.5" x2="415.5" y2="301.5" stroke="#ef5350" stroke-width="1.4"/><line x1="414.5" y1="302.5" x2="415.5" y2="302.5" stroke="#ef5350" stroke-width="1.4"/><line x1="415.5" y1="300.5" x2="415.5" y2="301.5" stroke="#ef5350" stroke-width="1.4"/><line x1="415.5" y1="301.5" x2="415.5" y2="302.5" stroke="#ef5350" stroke-width="1.4"/><line x1="415.5" y1="301.5" x2="416.5" y2="301.5" stroke="#ef5350" stroke-width="1.4"/><line x1="415.5" y1="302.5" x2="415.5" y2="303.5" stroke="#ef5350" stroke-width="1.4"/><line x1="415.5" y1="302.5" x2="416.5" y2="302.5" stroke="#ef5350" stroke-width="1.4"/><rect x="559" y="311" width="1" height="1" fill="#ef5350"/><rect x="560" y="311" width="1" height="1" fill="#ef5350"/><rect x="561" y="311" width="1" height="1" fill="#ef5350"/><rect x="559" y="312" width="1" height="1" fill="#ef5350"/><rect x="560" y="312" width="1" height="1" fill="#ef5350"/><rect x="561" y="312" width="1" height="1" fill="#ef5350"/><rect x="562" y="312" width="1" height="1" fill="#ef5350"/><rect x="559" y="313" width="1" height="1" fill="#ef5350"/><rect x="560" y="313" width="1" height="1" fill="#ef5350"/><rect x="561" y="313" width="1" height="1" fill="#ef5350"/><rect x="561" y="314" width="1" height="1" fill="#ef5350"/><rect x="532" y="320" width="1" height="1" fill="#ef5350"/><rect x="534" y="320" width="1" height="1" fill="#ef5350"/><rect x="535" y="320" width="1" height="1" fill="#ef5350"/><rect x="536" y="320" width="1" height="1" fill="#ef5350"/><rect x="531" y="321" width="1" height="1" fill="#ef5350"/><rect x="532" y="321" width="1" height="1" fill="#ef5350"/><rect x="533" y="321" width="1" height="1" fill="#ef5350"/><rect x="534" y="321" width="1" height="1" fill="#ef5350"/><rect x="535" y="321" width="1" height="1" fill="#ef5350"/><rect x="536" y="321" width="1" height="1" fill="#ef5350"/><rect x="537" y="321" width="1" height="1" fill="#ef5350"/><rect x="531" y="322" width="1" height="1" fill="#ef5350"/><rect x="532" y="322" width="1" height="1" fill="#ef5350"/><rect x="533" y="322" width="1" height="1" fill="#ef5350"/><rect x="534" y="322" width="1" height="1" fill="#ef5350"/><rect x="535" y="322" width="1" height="1" fill="#ef5350"/><rect x="536" y="322" width="1" height="1" fill="#ef5350"/><rect x="532" y="323" width="1" height="1" fill="#ef5350"/><rect x="533" y="323" width="1" height="1" fill="#ef5350"/><rect x="534" y="323" width="1" height="1" fill="#ef5350"/><line x1="531.5" y1="321.5" x2="532.5" y2="321.5" stroke="#ef5350" stroke-width="1.4"/><line x1="531.5" y1="322.5" x2="532.5" y2="322.5" stroke="#ef5350" stroke-width="1.4"/><line x1="532.5" y1="320.5" x2="532.5" y2="321.5" stroke="#ef5350" stroke-width="1.4"/><line x1="532.5" y1="321.5" x2="532.5" y2="322.5" stroke="#ef5350" stroke-width="1.4"/><line x1="532.5" y1="321.5" x2="533.5" y2="321.5" stroke="#ef5350" stroke-width="1.4"/><line x1="532.5" y1="322.5" x2="532.5" y2="323.5" stroke="#ef5350" stroke-width="1.4"/><line x1="532.5" y1="322.5" x2="533.5" y2="322.5" stroke="#ef5350" stroke-width="1.4"/><line x1="533.5" y1="321.5" x2="533.5" y2="322.5" stroke="#ef5350" stroke-width="1.4"/><line x1="533.5" y1="321.5" x2="534.5" y2="321.5" stroke="#ef5350" stroke-width="1.4"/><line x1="533.5" y1="322.5" x2="533.5" y2="323.5" stroke="#ef5350" stroke-width="1.4"/><line x1="533.5" y1="322.5" x2="534.5" y2="322.5" stroke="#ef5350" stroke-width="1.4"/><line x1="534.5" y1="320.5" x2="534.5" y2="321.5" stroke="#ef5350" stroke-width="1.4"/><line x1="534.5" y1="321.5" x2="534.5" y2="322.5" stroke="#ef5350" stroke-width="1.4"/><line x1="534.5" y1="321.5" x2="535.5" y2="321.5" stroke="#ef5350" stroke-width="1.4"/><line x1="534.5" y1="322.5" x2="534.5" y2="323.5" stroke="#ef5350" stroke-width="1.4"/><line x1="534.5" y1="322.5" x2="535.5" y2="322.5" stroke="#ef5350" stroke-width="1.4"/><line x1="535.5" y1="320.5" x2="535.5" y2="321.5" stroke="#ef5350" stroke-width="1.4"/><line x1="535.5" y1="321.5" x2="535.5" y2="322.5" stroke="#ef5350" stroke-width="1.4"/><line x1="535.5" y1="321.5" x2="536.5" y2="321.5" stroke="#ef5350" stroke-width="1.4"/><line x1="535.5" y1="322.5" x2="536.5" y2="322.5" stroke="#ef5350" stroke-width="1.4"/><line x1="536.5" y1="320.5" x2="536.5" y2="321.5" stroke="#ef5350" stroke-width="1.4"/><line x1="536.5" y1="321.5" x2="536.5" y2="322.5" stroke="#ef5350" stroke-width="1.4"/><line x1="536.5" y1="321.5" x2="537.5" y2="321.5" stroke="#ef5350" stroke-width="1.4"/><line x1="559.5" y1="311.5" x2="560.5" y2="311.5" stroke="#ef5350" stroke-width="1.4"/><line x1="559.5" y1="312.5" x2="560.5" y2="312.5" stroke="#ef5350" stroke-width="1.4"/><line x1="559.5" y1="313.5" x2="560.5" y2="313.5" stroke="#ef5350" stroke-width="1.4"/><line x1="560.5" y1="311.5" x2="560.5" y2="312.5" stroke="#ef5350" stroke-width="1.4"/><line x1="560.5" y1="311.5" x2="561.5" y2="311.5" stroke="#ef5350" stroke-width="1.4"/><line x1="560.5" y1="312.5" x2="560.5" y2="313.5" stroke="#ef5350" stroke-width="1.4"/><line x1="560.5" y1="312.5" x2="561.5" y2="312.5" stroke="#ef5350" stroke-width="1.4"/><line x1="560.5" y1="313.5" x2="561.5" y2="313.5" stroke="#ef5350" stroke-width="1.4"/><line x1="561.5" y1="311.5" x2="561.5" y2="312.5" stroke="#ef5350" stroke-width="1.4"/><line x1="561.5" y1="312.5" x2="561.5" y2="313.5" stroke="#ef5350" stroke-width="1.4"/><line x1="561.5" y1="312.5" x2="562.5" y2="312.5" stroke="#ef5350" stroke-width="1.4"/><line x1="561.5" y1="313.5" x2="561.5" y2="314.5" stroke="#ef5350" stroke-width="1.4"/><rect x="532" y="276" width="1" height="1" fill="#ef5350"/><rect x="531" y="277" width="1" height="1" fill="#ef5350"/><rect x="532" y="277" width="1" height="1" fill="#ef5350"/><rect x="533" y="277" width="1" height="1" fill="#ef5350"/><rect x="531" y="278" width="1" height="1" fill="#ef5350"/><rect x="532" y="278" width="1" height="1" fill="#ef5350"/><rect x="533" y="278" width="1" height="1" fill="#ef5350"/><rect x="531" y="279" width="1" height="1" fill="#ef5350"/><rect x="532" y="279" width="1" height="1" fill="#ef5350"/><rect x="533" y="279" width="1" height="1" fill="#ef5350"/><rect x="532" y="280" width="1" height="1" fill="#ef5350"/><line x1="531.5" y1="277.5" x2="532.5" y2="277.5" stroke="#ef5350" stroke-width="1.4"/><line x1="531.5" y1="278.5" x2="532.5" y2="278.5" stroke="#ef5350" stroke-width="1.4"/><line x1="531.5" y1="279.5" x2="532.5" y2="279.5" stroke="#ef5350" stroke-width="1.4"/><line x1="532.5" y1="276.5" x2="532.5" y2="277.5" stroke="#ef5350" stroke-width="1.4"/><line x1="532.5" y1="277.5" x2="532.5" y2="278.5" stroke="#ef5350" stroke-width="1.4"/><line x1="532.5" y1="277.5" x2="533.5" y2="277.5" stroke="#ef5350" stroke-width="1.4"/><line x1="532.5" y1="278.5" x2="532.5" y2="279.5" stroke="#ef5350" stroke-width="1.4"/><line x1="532.5" y1="278.5" x2="533.5" y2="278.5" stroke="#ef5350" stroke-width="1.4"/><line x1="532.5" y1="279.5" x2="532.5" y2="280.5" stroke="#ef5350" stroke-width="1.4"/><line x1="532.5" y1="279.5" x2="533.5" y2="279.5" stroke="#ef5350" stroke-width="1.4"/><rect x="560" y="311" width="1" height="1" fill="#ef5350"/><rect x="561" y="311" width="1" height="1" fill="#ef5350"/><rect x="560" y="312" width="1" height="1" fill="#ef5350"/><rect x="561" y="312" width="1" height="1" fill="#ef5350"/><rect x="560" y="313" width="1" height="1" fill="#ef5350"/><rect x="561" y="313" width="1" height="1" fill="#ef5350"/><rect x="561" y="314" width="1" height="1" fill="#ef5350"/><line x1="560.5" y1="311.5" x2="560.5" y2="312.5" stroke="#ef5350" stroke-width="1.4"/><line x1="560.5" y1="311.5" x2="561.5" y2="311.5" stroke="#ef5350" stroke-width="1.4"/><line x1="560.5" y1="312.5" x2="560.5" y2="313.5" stroke="#ef5350" stroke-width="1.4"/><line x1="560.5" y1="312.5" x2="561.5" y2="312.5" stroke="#ef5350" stroke-width="1.4"/><line x1="560.5" y1="313.5" x2="561.5" y2="313.5" stroke="#ef5350" stroke-width="1.4"/><line x1="561.5" y1="311.5" x2="561.5" y2="312.5" stroke="#ef5350" stroke-width="1.4"/><line x1="561.5" y1="312.5" x2="561.5" y2="313.5" stroke="#ef5350" stroke-width="1.4"/><line x1="561.5" y1="313.5" x2="561.5" y2="314.5" stroke="#ef5350" stroke-width="1.4"/><rect x="491" y="300" width="1" height="1" fill="#ef5350"/><rect x="490" y="301" width="1" height="1" fill="#ef5350"/><rect x="491" y="301" width="1" height="1" fill="#ef5350"/><rect x="492" y="301" width="1" height="1" fill="#ef5350"/><rect x="490" y="302" width="1" height="1" fill="#ef5350"/><rect x="491" y="302" width="1" height="1" fill="#ef5350"/><rect x="492" y="302" width="1" height="1" fill="#ef5350"/><rect x="491" y="303" width="1" height="1" fill="#ef5350"/><line x1="490.5" y1="301.5" x2="491.5" y2="301.5" stroke="#ef5350" stroke-width="1.4"/><line x1="490.5" y1="302.5" x2="491.5" y2="302.5" stroke="#ef5350" stroke-width="1.4"/><line x1="491.5" y1="300.5" x2="491.5" y2="301.5" stroke="#ef5350" stroke-width="1.4"/><line x1="491.5" y1="301.5" x2="491.5" y2="302.5" stroke="#ef5350" stroke-width="1.4"/><line x1="491.5" y1="301.5" x2="492.5" y2="301.5" stroke="#ef5350" stroke-width="1.4"/><line x1="491.5" y1="302.5" x2="491.5" y2="303.5" stroke="#ef5350" stroke-width="1.4"/><line x1="491.5" y1="302.5" x2="492.5" y2="302.5" stroke="#ef5350" stroke-width="1.4"/><rect x="348" y="296" width="1" height="1" fill="#ef5350"/><rect x="349" y="296" width="1" height="1" fill="#ef5350"/><rect x="348" y="297" width="1" height="1" fill="#ef5350"/><rect x="349" y="297" width="1" height="1" fill="#ef5350"/><rect x="348" y="298" width="1" height="1" fill="#ef5350"/><rect x="349" y="298" width="1" height="1" fill="#ef5350"/><rect x="348" y="299" width="1" height="1" fill="#ef5350"/><rect x="349" y="299" width="1" height="1" fill="#ef5350"/><rect x="348" y="300" width="1" height="1" fill="#ef5350"/><rect x="349" y="300" width="1" height="1" fill="#ef5350"/><rect x="348" y="301" width="1" height="1" fill="#ef5350"/><rect x="349" y="301" width="1" height="1" fill="#ef5350"/><rect x="348" y="302" width="1" height="1" fill="#ef5350"/><rect x="349" y="302" width="1" height="1" fill="#ef5350"/><rect x="348" y="303" width="1" height="1" fill="#ef5350"/><rect x="349" y="303" width="1" height="1" fill="#ef5350"/><line x1="348.5" y1="296.5" x2="349.5" y2="296.5" stroke="#ef5350" stroke-width="1.4"/><line x1="348.5" y1="297.5" x2="349.5" y2="297.5" stroke="#ef5350" stroke-width="1.4"/><line x1="348.5" y1="298.5" x2="349.5" y2="298.5" stroke="#ef5350" stroke-width="1.4"/><line x1="348.5" y1="299.5" x2="349.5" y2="299.5" stroke="#ef5350" stroke-width="1.4"/><line x1="348.5" y1="300.5" x2="349.5" y2="300.5" stroke="#ef5350" stroke-width="1.4"/><line x1="348.5" y1="301.5" x2="349.5" y2="301.5" stroke="#ef5350" stroke-width="1.4"/><line x1="348.5" y1="302.5" x2="349.5" y2="302.5" stroke="#ef5350" stroke-width="1.4"/><line x1="348.5" y1="303.5" x2="349.5" y2="303.5" stroke="#ef5350" stroke-width="1.4"/><rect x="532" y="285" width="1" height="1" fill="#ef5350"/><rect x="531" y="286" width="1" height="1" fill="#ef5350"/><rect x="532" y="286" width="1" height="1" fill="#ef5350"/><rect x="533" y="286" width="1" height="1" fill="#ef5350"/><rect x="531" y="287" width="1" height="1" fill="#ef5350"/><rect x="532" y="287" width="1" height="1" fill="#ef5350"/><rect x="533" y="287" width="1" height="1" fill="#ef5350"/><rect x="531" y="288" width="1" height="1" fill="#ef5350"/><rect x="532" y="288" width="1" height="1" fill="#ef5350"/><rect x="533" y="288" width="1" height="1" fill="#ef5350"/><rect x="532" y="289" width="1" height="1" fill="#ef5350"/><line x1="531.5" y1="286.5" x2="532.5" y2="286.5" stroke="#ef5350" stroke-width="1.4"/><line x1="531.5" y1="287.5" x2="532.5" y2="287.5" stroke="#ef5350" stroke-width="1.4"/><line x1="531.5" y1="288.5" x2="532.5" y2="288.5" stroke="#ef5350" stroke-width="1.4"/><line x1="532.5" y1="285.5" x2="532.5" y2="286.5" stroke="#ef5350" stroke-width="1.4"/><line x1="532.5" y1="286.5" x2="532.5" y2="287.5" stroke="#ef5350" stroke-width="1.4"/><line x1="532.5" y1="286.5" x2="533.5" y2="286.5" stroke="#ef5350" stroke-width="1.4"/><line x1="532.5" y1="287.5" x2="532.5" y2="288.5" stroke="#ef5350" stroke-width="1.4"/><line x1="532.5" y1="287.5" x2="533.5" y2="287.5" stroke="#ef5350" stroke-width="1.4"/><line x1="532.5" y1="288.5" x2="532.5" y2="289.5" stroke="#ef5350" stroke-width="1.4"/><line x1="532.5" y1="288.5" x2="533.5" y2="288.5" stroke="#ef5350" stroke-width="1.4"/><rect x="560" y="301" width="1" height="1" fill="#ef5350"/><rect x="561" y="301" width="1" height="1" fill="#ef5350"/><rect x="562" y="301" width="1" height="1" fill="#ef5350"/><rect x="560" y="302" width="1" height="1" fill="#ef5350"/><rect x="561" y="302" width="1" height="1" fill="#ef5350"/><rect x="562" y="302" width="1" height="1" fill="#ef5350"/><rect x="561" y="303" width="1" height="1" fill="#ef5350"/><rect x="562" y="303" width="1" height="1" fill="#ef5350"/><rect x="561" y="304" width="1" height="1" fill="#ef5350"/><rect x="562" y="304" width="1" height="1" fill="#ef5350"/><rect x="561" y="305" width="1" height="1" fill="#ef5350"/><rect x="562" y="305" width="1" height="1" fill="#ef5350"/><rect x="561" y="306" width="1" height="1" fill="#ef5350"/><rect x="562" y="306" width="1" height="1" fill="#ef5350"/><rect x="561" y="307" width="1" height="1" fill="#ef5350"/><rect x="562" y="307" width="1" height="1" fill="#ef5350"/><rect x="561" y="308" width="1" height="1" fill="#ef5350"/><rect x="562" y="308" width="1" height="1" fill="#ef5350"/><rect x="561" y="309" width="1" height="1" fill="#ef5350"/><rect x="562" y="309" width="1" height="1" fill="#ef5350"/><rect x="561" y="310" width="1" height="1" fill="#ef5350"/><rect x="562" y="310" width="1" height="1" fill="#ef5350"/><rect x="559" y="311" width="1" height="1" fill="#ef5350"/><rect x="560" y="311" width="1" height="1" fill="#ef5350"/><rect x="561" y="311" width="1" height="1" fill="#ef5350"/><rect x="562" y="311" width="1" height="1" fill="#ef5350"/><rect x="559" y="312" width="1" height="1" fill="#ef5350"/><rect x="560" y="312" width="1" height="1" fill="#ef5350"/><rect x="561" y="312" width="1" height="1" fill="#ef5350"/><rect x="562" y="312" width="1" height="1" fill="#ef5350"/><rect x="559" y="313" width="1" height="1" fill="#ef5350"/><rect x="560" y="313" width="1" height="1" fill="#ef5350"/><rect x="561" y="313" width="1" height="1" fill="#ef5350"/><line x1="559.5" y1="311.5" x2="560.5" y2="311.5" stroke="#ef5350" stroke-width="1.4"/><line x1="559.5" y1="312.5" x2="560.5" y2="312.5" stroke="#ef5350" stroke-width="1.4"/><line x1="559.5" y1="313.5" x2="560.5" y2="313.5" stroke="#ef5350" stroke-width="1.4"/><line x1="560.5" y1="301.5" x2="561.5" y2="301.5" stroke="#ef5350" stroke-width="1.4"/><line x1="560.5" y1="302.5" x2="561.5" y2="302.5" stroke="#ef5350" stroke-width="1.4"/><line x1="560.5" y1="311.5" x2="560.5" y2="312.5" stroke="#ef5350" stroke-width="1.4"/><line x1="560.5" y1="311.5" x2="561.5" y2="311.5" stroke="#ef5350" stroke-width="1.4"/><line x1="560.5" y1="312.5" x2="560.5" y2="313.5" stroke="#ef5350" stroke-width="1.4"/><line x1="560.5" y1="312.5" x2="561.5" y2="312.5" stroke="#ef5350" stroke-width="1.4"/><line x1="560.5" y1="313.5" x2="561.5" y2="313.5" stroke="#ef5350" stroke-width="1.4"/><line x1="561.5" y1="301.5" x2="561.5" y2="302.5" stroke="#ef5350" stroke-width="1.4"/><line x1="561.5" y1="301.5" x2="562.5" y2="301.5" stroke="#ef5350" stroke-width="1.4"/><line x1="561.5" y1="302.5" x2="561.5" y2="303.5" stroke="#ef5350" stroke-width="1.4"/><line x1="561.5" y1="302.5" x2="562.5" y2="302.5" stroke="#ef5350" stroke-width="1.4"/><line x1="561.5" y1="303.5" x2="561.5" y2="304.5" stroke="#ef5350" stroke-width="1.4"/><line x1="561.5" y1="303.5" x2="562.5" y2="303.5" stroke="#ef5350" stroke-width="1.4"/><line x1="561.5" y1="304.5" x2="561.5" y2="305.5" stroke="#ef5350" stroke-width="1.4"/><line x1="561.5" y1="304.5" x2="562.5" y2="304.5" stroke="#ef5350" stroke-width="1.4"/><line x1="561.5" y1="305.5" x2="561.5" y2="306.5" stroke="#ef5350" stroke-width="1.4"/><line x1="561.5" y1="305.5" x2="562.5" y2="305.5" stroke="#ef5350" stroke-width="1.4"/><line x1="561.5" y1="306.5" x2="561.5" y2="307.5" stroke="#ef5350" stroke-width="1.4"/><line x1="561.5" y1="306.5" x2="562.5" y2="306.5" stroke="#ef5350" stroke-width="1.4"/><line x1="561.5" y1="307.5" x2="561.5" y2="308.5" stroke="#ef5350" stroke-width="1.4"/><line x1="561.5" y1="307.5" x2="562.5" y2="307.5" stroke="#ef5350" stroke-width="1.4"/><line x1="561.5" y1="308.5" x2="561.5" y2="309.5" stroke="#ef5350" stroke-width="1.4"/><line x1="561.5" y1="308.5" x2="562.5" y2="308.5" stroke="#ef5350" stroke-width="1.4"/><line x1="561.5" y1="309.5" x2="561.5" y2="310.5" stroke="#ef5350" stroke-width="1.4"/><line x1="561.5" y1="309.5" x2="562.5" y2="309.5" stroke="#ef5350" stroke-width="1.4"/><line x1="561.5" y1="310.5" x2="561.5" y2="311.5" stroke="#ef5350" stroke-width="1.4"/><line x1="561.5" y1="310.5" x2="562.5" y2="310.5" stroke="#ef5350" stroke-width="1.4"/><line x1="561.5" y1="311.5" x2="561.5" y2="312.5" stroke="#ef5350" stroke-width="1.4"/><line x1="561.5" y1="311.5" x2="562.5" y2="311.5" stroke="#ef5350" stroke-width="1.4"/><line x1="561.5" y1="312.5" x2="561.5" y2="313.5" stroke="#ef5350" stroke-width="1.4"/><line x1="561.5" y1="312.5" x2="562.5" y2="312.5" stroke="#ef5350" stroke-width="1.4"/><rect x="415" y="300" width="1" height="1" fill="#ef5350"/><rect x="414" y="301" width="1" height="1" fill="#ef5350"/><rect x="415" y="301" width="1" height="1" fill="#ef5350"/><rect x="416" y="301" width="1" height="1" fill="#ef5350"/><rect x="414" y="302" width="1" height="1" fill="#ef5350"/><rect x="415" y="302" width="1" height="1" fill="#ef5350"/><rect x="416" y="302" width="1" height="1" fill="#ef5350"/><rect x="415" y="303" width="1" height="1" fill="#ef5350"/><line x1="414.5" y1="301.5" x2="415.5" y2="301.5" stroke="#ef5350" stroke-width="1.4"/><line x1="414.5" y1="302.5" x2="415.5" y2="302.5" stroke="#ef5350" stroke-width="1.4"/><line x1="415.5" y1="300.5" x2="415.5" y2="301.5" stroke="#ef5350" stroke-width="1.4"/><line x1="415.5" y1="301.5" x2="415.5" y2="302.5" stroke="#ef5350" stroke-width="1.4"/><line x1="415.5" y1="301.5" x2="416.5" y2="301.5" stroke="#ef5350" stroke-width="1.4"/><line x1="415.5" y1="302.5" x2="415.5" y2="303.5" stroke="#ef5350" stroke-width="1.4"/><line x1="415.5" y1="302.5" x2="416.5" y2="302.5" stroke="#ef5350" stroke-width="1.4"/><rect x="348" y="296" width="1" height="1" fill="#ef5350"/><rect x="349" y="296" width="1" height="1" fill="#ef5350"/><rect x="348" y="297" width="1" height="1" fill="#ef5350"/><rect x="349" y="297" width="1" height="1" fill="#ef5350"/><rect x="348" y="298" width="1" height="1" fill="#ef5350"/><rect x="349" y="298" width="1" height="1" fill="#ef5350"/><rect x="348" y="299" width="1" height="1" fill="#ef5350"/><rect x="349" y="299" width="1" height="1" fill="#ef5350"/><rect x="348" y="300" width="1" height="1" fill="#ef5350"/><rect x="349" y="300" width="1" height="1" fill="#ef5350"/><rect x="348" y="301" width="1" height="1" fill="#ef5350"/><rect x="349" y="301" width="1" height="1" fill="#ef5350"/><rect x="348" y="302" width="1" height="1" fill="#ef5350"/><rect x="349" y="302" width="1" height="1" fill="#ef5350"/><rect x="348" y="303" width="1" height="1" fill="#ef5350"/><rect x="349" y="303" width="1" height="1" fill="#ef5350"/><line x1="348.5" y1="296.5" x2="349.5" y2="296.5" stroke="#ef5350" stroke-width="1.4"/><line x1="348.5" y1="297.5" x2="349.5" y2="297.5" stroke="#ef5350" stroke-width="1.4"/><line x1="348.5" y1="298.5" x2="349.5" y2="298.5" stroke="#ef5350" stroke-width="1.4"/><line x1="348.5" y1="299.5" x2="349.5" y2="299.5" stroke="#ef5350" stroke-width="1.4"/><line x1="348.5" y1="300.5" x2="349.5" y2="300.5" stroke="#ef5350" stroke-width="1.4"/><line x1="348.5" y1="301.5" x2="349.5" y2="301.5" stroke="#ef5350" stroke-width="1.4"/><line x1="348.5" y1="302.5" x2="349.5" y2="302.5" stroke="#ef5350" stroke-width="1.4"/><line x1="348.5" y1="303.5" x2="349.5" y2="303.5" stroke="#ef5350" stroke-width="1.4"/><rect x="522" y="133" width="1" height="1" fill="#ef5350"/><rect x="522" y="134" width="1" height="1" fill="#ef5350"/><rect x="523" y="134" width="1" height="1" fill="#ef5350"/><rect x="524" y="134" width="1" height="1" fill="#ef5350"/><rect x="522" y="135" width="1" height="1" fill="#ef5350"/><rect x="523" y="135" width="1" height="1" fill="#ef5350"/><rect x="524" y="135" width="1" height="1" fill="#ef5350"/><rect x="523" y="136" width="1" height="1" fill="#ef5350"/><line x1="522.5" y1="133.5" x2="522.5" y2="134.5" stroke="#ef5350" stroke-width="1.4"/><line x1="522.5" y1="134.5" x2="522.5" y2="135.5" stroke="#ef5350" stroke-width="1.4"/><line x1="522.5" y1="134.5" x2="523.5" y2="134.5" stroke="#ef5350" stroke-width="1.4"/><line x1="522.5" y1="135.5" x2="523.5" y2="135.5" stroke="#ef5350" stroke-width="1.4"/><line x1="523.5" y1="134.5" x2="523.5" y2="135.5" stroke="#ef5350" stroke-width="1.4"/><line x1="523.5" y1="134.5" x2="524.5" y2="134.5" stroke="#ef5350" stroke-width="1.4"/><line x1="523.5" y1="135.5" x2="523.5" y2="136.5" stroke="#ef5350" stroke-width="1.4"/><line x1="523.5" y1="135.5" x2="524.5" y2="135.5" stroke="#ef5350" stroke-width="1.4"/><rect x="532" y="300" width="1" height="1" fill="#ef5350"/><rect x="531" y="301" width="1" height="1" fill="#ef5350"/><rect x="532" y="301" width="1" height="1" fill="#ef5350"/><rect x="533" y="301" width="1" height="1" fill="#ef5350"/><rect x="531" y="302" width="1" height="1" fill="#ef5350"/><rect x="532" y="302" width="1" height="1" fill="#ef5350"/><rect x="533" y="302" width="1" height="1" fill="#ef5350"/><rect x="532" y="303" width="1" height="1" fill="#ef5350"/><line x1="531.5" y1="301.5" x2="532.5" y2="301.5" stroke="#ef5350" stroke-width="1.4"/><line x1="531.5" y1="302.5" x2="532.5" y2="302.5" stroke="#ef5350" stroke-width="1.4"/><line x1="532.5" y1="300.5" x2="532.5" y2="301.5" stroke="#ef5350" stroke-width="1.4"/><line x1="532.5" y1="301.5" x2="532.5" y2="302.5" stroke="#ef5350" stroke-width="1.4"/><line x1="532.5" y1="301.5" x2="533.5" y2="301.5" stroke="#ef5350" stroke-width="1.4"/><line x1="532.5" y1="302.5" x2="532.5" y2="303.5" stroke="#ef5350" stroke-width="1.4"/><line x1="532.5" y1="302.5" x2="533.5" y2="302.5" stroke="#ef5350" stroke-width="1.4"/><rect x="532" y="311" width="1" height="1" fill="#ef5350"/><rect x="533" y="311" width="1" height="1" fill="#ef5350"/><rect x="532" y="312" width="1" height="1" fill="#ef5350"/><rect x="533" y="312" width="1" height="1" fill="#ef5350"/><rect x="532" y="313" width="1" height="1" fill="#ef5350"/><rect x="533" y="313" width="1" height="1" fill="#ef5350"/><rect x="532" y="314" width="1" height="1" fill="#ef5350"/><line x1="532.5" y1="311.5" x2="532.5" y2="312.5" stroke="#ef5350" stroke-width="1.4"/><line x1="532.5" y1="311.5" x2="533.5" y2="311.5" stroke="#ef5350" stroke-width="1.4"/><line x1="532.5" y1="312.5" x2="532.5" y2="313.5" stroke="#ef5350" stroke-width="1.4"/><line x1="532.5" y1="312.5" x2="533.5" y2="312.5" stroke="#ef5350" stroke-width="1.4"/><line x1="532.5" y1="313.5" x2="532.5" y2="314.5" stroke="#ef5350" stroke-width="1.4"/><line x1="532.5" y1="313.5" x2="533.5" y2="313.5" stroke="#ef5350" stroke-width="1.4"/><line x1="533.5" y1="311.5" x2="533.5" y2="312.5" stroke="#ef5350" stroke-width="1.4"/><line x1="533.5" y1="312.5" x2="533.5" y2="313.5" stroke="#ef5350" stroke-width="1.4"/><rect x="415" y="300" width="1" height="1" fill="#ef5350"/><rect x="414" y="301" width="1" height="1" fill="#ef5350"/><rect x="415" y="301" width="1" height="1" fill="#ef5350"/><rect x="416" y="301" width="1" height="1" fill="#ef5350"/><rect x="414" y="302" width="1" height="1" fill="#ef5350"/><rect x="415" y="302" width="1" height="1" fill="#ef5350"/><rect x="416" y="302" width="1" height="1" fill="#ef5350"/><rect x="415" y="303" width="1" height="1" fill="#ef5350"/><line x1="414.5" y1="301.5" x2="415.5" y2="301.5" stroke="#ef5350" stroke-width="1.4"/><line x1="414.5" y1="302.5" x2="415.5" y2="302.5" stroke="#ef5350" stroke-width="1.4"/><line x1="415.5" y1="300.5" x2="415.5" y2="301.5" stroke="#ef5350" stroke-width="1.4"/><line x1="415.5" y1="301.5" x2="415.5" y2="302.5" stroke="#ef5350" stroke-width="1.4"/><line x1="415.5" y1="301.5" x2="416.5" y2="301.5" stroke="#ef5350" stroke-width="1.4"/><line x1="415.5" y1="302.5" x2="415.5" y2="303.5" stroke="#ef5350" stroke-width="1.4"/><line x1="415.5" y1="302.5" x2="416.5" y2="302.5" stroke="#ef5350" stroke-width="1.4"/></g></svg>
